<?xml version="1.0" encoding="utf-8"?>
<!-- Generator: Adobe Illustrator 25.2.1, SVG Export Plug-In . SVG Version: 6.00 Build 0)  -->
<svg version="1.1" id="Layer_1" xmlns="http://www.w3.org/2000/svg" xmlns:xlink="http://www.w3.org/1999/xlink" x="0px" y="0px"
	 viewBox="0 0 1128 191" style="enable-background:new 0 0 1128 191;" xml:space="preserve">
<style type="text/css">
	.st0{fill-rule:evenodd;clip-rule:evenodd;fill:#FFFFFF;}
	.st1{fill-rule:evenodd;clip-rule:evenodd;fill:#01A150;}
	.st2{fill-rule:evenodd;clip-rule:evenodd;fill:#547BBE;}
	.st3{fill-rule:evenodd;clip-rule:evenodd;fill:#E84536;}
	.st4{fill-rule:evenodd;clip-rule:evenodd;fill:#F8BB16;}
	.st5{fill:#787979;}
	.st6{font-family:'ProductSans-Regular';}
	.st7{font-size:32.5655px;}
	.st8{letter-spacing:-1;}
	.st9{font-size:22.3341px;}
</style>
<rect id="White_Background" class="st0" width="1128" height="191"/>
<g id="GDSC_Logo">
	<path class="st1" d="M594.57,47.97c1.25,0.39,3.87,2.04,4.91,2.64c1.67,0.98,3.07,1.82,4.73,2.79c3.98,2.33,5.69,3.91,11.5,3.91
		c4.24-1.05,8.29-5.3,7.37-11.12c-0.87-5.51-5.27-6.95-9.41-9.4c-7.91-4.68-15.88-9.3-23.85-13.79c-3.8-2.14-8.61-5.8-13.92-2.96
		c-3.69,1.97-6.89,7.24-4.16,12.76c1.25,2.54,2.37,3.13,4.8,4.6c1.96,1.19,3.82,2.24,5.97,3.44L594.57,47.97L594.57,47.97z"/>
	<path class="st2" d="M510.76,38.69c-2.55,1.12-3.76,1.9-5.15,4.02c-1.42,2.16-1.85,4.93-1.13,7.71c1.22,4.73,5.85,6.56,9.92,8.86
		c7.96,4.5,15.63,9.17,23.63,13.63c3.85,2.15,8.07,5.58,13.57,2.6c3.59-1.95,6.72-7.42,3.89-12.89
		c-2.74-5.31-18.54-11.04-22.64-14.9c-3.35-1.44-7.12-4.01-10.42-5.86C519.11,40.02,515.72,37.38,510.76,38.69L510.76,38.69z"/>
	<path class="st3" d="M510.76,38.69c4.96-1.31,8.35,1.33,11.65,3.17c3.3,1.85,7.07,4.42,10.42,5.86L551.45,37
		c2.16-1.26,2.59-1.44,3.71-3.45c3.46-6.23,0.15-12.6-5.34-14.17c-5.95-1.69-13.39,4.45-20.42,8.35c-3.17,1.76-6.17,3.52-9.32,5.36
		C518.05,34.27,511.95,37.49,510.76,38.69L510.76,38.69z"/>
	<path class="st4" d="M615.71,57.32c-5.81,0.01-7.51-1.58-11.5-3.91c-1.66-0.97-3.06-1.81-4.73-2.79c-1.03-0.6-3.65-2.25-4.91-2.64
		c-2.81,1.27-6.54,3.59-9.23,5.22c-7.7,4.66-14.89,6.59-14.56,14.44c0.17,4.08,3.18,7.34,6.26,8.44c4.82,1.71,7.51-0.52,10.8-2.31
		L615.04,58C615.57,57.54,615.29,57.81,615.71,57.32L615.71,57.32z"/>
</g>
<text transform="matrix(1 0 0 1 393.0039 137.0051)"><tspan x="0" y="0" class="st5 st6 st7">Dev</tspan><tspan x="53.24" y="0" class="st5 st6 st7">e</tspan><tspan x="70.7" y="0" class="st5 st6 st7">l</tspan><tspan x="76.85" y="0" class="st5 st6 st7">o</tspan><tspan x="94.47" y="0" class="st5 st6 st7">p</tspan><tspan x="112.71" y="0" class="st5 st6 st7">e</tspan><tspan x="129.8" y="0" class="st5 st6 st7">r </tspan><tspan x="148.79" y="0" class="st5 st6 st7">S</tspan><tspan x="165.82" y="0" class="st5 st6 st7">t</tspan><tspan x="177.02" y="0" class="st5 st6 st7">u</tspan><tspan x="193.7" y="0" class="st5 st6 st7">de</tspan><tspan x="229.26" y="0" class="st5 st6 st7 st8">n</tspan><tspan x="245.74" y="0" class="st5 st6 st7">t </tspan><tspan x="264.43" y="0" class="st5 st6 st7 st8">C</tspan><tspan x="287.03" y="0" class="st5 st6 st7">l</tspan><tspan x="293.67" y="0" class="st5 st6 st7">u</tspan><tspan x="310.9" y="0" class="st5 st6 st7">bs</tspan></text>
<g>
	<text transform="matrix(1 0 0 1 267.2341 169.8672)"><tspan x="0" y="0" class="st5 st6 st9">I</tspan><tspan x="5.27" y="0" class="st5 st6 st9">n</tspan><tspan x="16.73" y="0" class="st5 st6 st9">di</tspan><tspan x="34.51" y="0" class="st5 st6 st9">a</tspan><tspan x="45.11" y="0" class="st5 st6 st9">n</tspan><tspan x="57.22" y="0" class="st5 st6 st9"> </tspan><tspan x="61.69" y="0" class="st5 st6 st9">In</tspan><tspan x="79.06" y="0" class="st5 st6 st9">s</tspan><tspan x="88.46" y="0" class="st5 st6 st9">t</tspan><tspan x="96.37" y="0" class="st5 st6 st9">i</tspan><tspan x="100.84" y="0" class="st5 st6 st9">tu</tspan><tspan x="120.27" y="0" class="st5 st6 st9">te</tspan><tspan x="140.14" y="0" class="st5 st6 st9"> </tspan><tspan x="144.14" y="0" class="st5 st6 st9">of</tspan><tspan x="164.87" y="0" class="st5 st6 st9"> </tspan><tspan x="169.27" y="0" class="st5 st6 st9">E</tspan><tspan x="180.81" y="0" class="st5 st6 st9">n</tspan><tspan x="192.09" y="0" class="st5 st6 st9">g</tspan><tspan x="204.69" y="0" class="st5 st6 st9">i</tspan><tspan x="209.47" y="0" class="st5 st6 st9">ne</tspan><tspan x="233.09" y="0" class="st5 st6 st9">e</tspan><tspan x="244.73" y="0" class="st5 st6 st9">r</tspan><tspan x="252.53" y="0" class="st5 st6 st9">i</tspan><tspan x="257.44" y="0" class="st5 st6 st9">n</tspan><tspan x="268.65" y="0" class="st5 st6 st9">g S</tspan><tspan x="298.78" y="0" class="st5 st6 st9">c</tspan><tspan x="309.94" y="0" class="st5 st6 st9">i</tspan><tspan x="314.86" y="0" class="st5 st6 st9">e</tspan><tspan x="326.34" y="0" class="st5 st6 st9">n</tspan><tspan x="338.44" y="0" class="st5 st6 st9">c</tspan><tspan x="349.23" y="0" class="st5 st6 st9">e</tspan><tspan x="361.2" y="0" class="st5 st6 st9"> </tspan><tspan x="365.8" y="0" class="st5 st6 st9">a</tspan><tspan x="377.08" y="0" class="st5 st6 st9">n</tspan><tspan x="388.36" y="0" class="st5 st6 st9">d Te</tspan><tspan x="430.17" y="0" class="st5 st6 st9">c</tspan><tspan x="441.36" y="0" class="st5 st6 st9">h</tspan><tspan x="452.9" y="0" class="st5 st6 st9">n</tspan><tspan x="464.72" y="0" class="st5 st6 st9">o</tspan><tspan x="476.73" y="0" class="st5 st6 st9">l</tspan><tspan x="480.93" y="0" class="st5 st6 st9">o</tspan><tspan x="492.79" y="0" class="st5 st6 st9">g</tspan><tspan x="505.21" y="0" class="st5 st6 st9">y,</tspan><tspan x="521.51" y="0" class="st5 st6 st9"> </tspan><tspan x="526.04" y="0" class="st5 st6 st9">S</tspan><tspan x="538.06" y="0" class="st5 st6 st9">h</tspan><tspan x="549.85" y="0" class="st5 st6 st9">i</tspan><tspan x="554.77" y="0" class="st5 st6 st9">b</tspan><tspan x="567.12" y="0" class="st5 st6 st9">pu</tspan><tspan x="590.92" y="0" class="st5 st6 st9">r</tspan></text>
</g>
</svg>
