<?xml version="1.0" encoding="utf-8"?>
<!-- Generator: Adobe Illustrator 25.2.1, SVG Export Plug-In . SVG Version: 6.00 Build 0)  -->
<svg version="1.1" id="Layer_1" xmlns="http://www.w3.org/2000/svg" xmlns:xlink="http://www.w3.org/1999/xlink" x="0px" y="0px"
	 viewBox="0 0 1128 191" style="enable-background:new 0 0 1128 191;" xml:space="preserve">
<style type="text/css">
	.st0{display:none;fill-rule:evenodd;clip-rule:evenodd;fill:#FFFFFF;}
	.st1{fill-rule:evenodd;clip-rule:evenodd;fill:#01A150;}
	.st2{fill-rule:evenodd;clip-rule:evenodd;fill:#547BBE;}
	.st3{fill-rule:evenodd;clip-rule:evenodd;fill:#E84536;}
	.st4{fill-rule:evenodd;clip-rule:evenodd;fill:#F8BB16;}
	.st5{enable-background:new    ;}
	.st6{fill:#787979;}
</style>
<rect id="White_Background" class="st0" width="1128" height="191"/>
<g id="GDSC_Logo">
	<path class="st1" d="M594.6,48c1.2,0.4,3.9,2,4.9,2.6c1.7,1,3.1,1.8,4.7,2.8c4,2.3,5.7,3.9,11.5,3.9c4.2-1,8.3-5.3,7.4-11.1
		c-0.9-5.5-5.3-7-9.4-9.4c-7.9-4.7-15.9-9.3-23.8-13.8c-3.8-2.1-8.6-5.8-13.9-3c-3.7,2-6.9,7.2-4.2,12.8c1.2,2.5,2.4,3.1,4.8,4.6
		c2,1.2,3.8,2.2,6,3.4L594.6,48L594.6,48z"/>
	<path class="st2" d="M510.8,38.7c-2.5,1.1-3.8,1.9-5.1,4c-1.4,2.2-1.9,4.9-1.1,7.7c1.2,4.7,5.9,6.6,9.9,8.9
		c8,4.5,15.6,9.2,23.6,13.6c3.8,2.2,8.1,5.6,13.6,2.6c3.6-1.9,6.7-7.4,3.9-12.9c-2.7-5.3-18.5-11-22.6-14.9c-3.3-1.4-7.1-4-10.4-5.9
		C519.1,40,515.7,37.4,510.8,38.7L510.8,38.7z"/>
	<path class="st3" d="M510.8,38.7c5-1.3,8.3,1.3,11.7,3.2c3.3,1.8,7.1,4.4,10.4,5.9L551.5,37c2.2-1.3,2.6-1.4,3.7-3.5
		c3.5-6.2,0.2-12.6-5.3-14.2c-6-1.7-13.4,4.4-20.4,8.4c-3.2,1.8-6.2,3.5-9.3,5.4C518,34.3,512,37.5,510.8,38.7L510.8,38.7z"/>
	<path class="st4" d="M615.7,57.3c-5.8,0-7.5-1.6-11.5-3.9c-1.7-1-3.1-1.8-4.7-2.8c-1-0.6-3.7-2.2-4.9-2.6c-2.8,1.3-6.5,3.6-9.2,5.2
		c-7.7,4.7-14.9,6.6-14.6,14.4c0.2,4.1,3.2,7.3,6.3,8.4c4.8,1.7,7.5-0.5,10.8-2.3L615,58C615.6,57.5,615.3,57.8,615.7,57.3
		L615.7,57.3z"/>
</g>
<g>
	<g class="st5">
		<path class="st6" d="M395.3,137v-23.3h7.1c3.6,0,6.4,1.1,8.6,3.2c2.2,2.1,3.2,5,3.2,8.4c0,3.5-1.1,6.3-3.2,8.5
			c-2.2,2.1-5,3.2-8.6,3.2H395.3z M398.3,116.6v17.6h4.1c2.7,0,4.9-0.8,6.4-2.3c1.6-1.6,2.3-3.7,2.3-6.5c0-2.7-0.8-4.9-2.3-6.4
			c-1.6-1.6-3.7-2.3-6.4-2.3H398.3z"/>
		<path class="st6" d="M424,137.5c-2.3,0-4.3-0.8-5.8-2.4c-1.5-1.6-2.3-3.6-2.3-6.1c0-2.4,0.7-4.5,2.2-6.1c1.5-1.6,3.4-2.4,5.7-2.4
			c2.4,0,4.2,0.8,5.7,2.3c1.4,1.5,2.1,3.7,2.1,6.4l0,0.3H419c0,1.6,0.6,2.8,1.6,3.8c1,1,2.2,1.4,3.6,1.4c1.9,0,3.4-1,4.5-2.9
			l2.7,1.3c-0.7,1.3-1.7,2.4-3,3.2C427.1,137.1,425.6,137.5,424,137.5z M419.2,127.1h9.2c-0.1-1.1-0.5-2-1.4-2.8
			c-0.8-0.7-1.9-1.1-3.3-1.1c-1.1,0-2.1,0.3-2.9,1C420,125,419.5,125.9,419.2,127.1z"/>
		<path class="st6" d="M441.7,137h-3l-6.4-16h3.3l4.7,12.4h0.1L445,121h3.2L441.7,137z"/>
	</g>
	<g class="st5">
		<path class="st6" d="M455.2,137.5c-2.3,0-4.3-0.8-5.8-2.4c-1.5-1.6-2.3-3.6-2.3-6.1c0-2.4,0.7-4.5,2.2-6.1s3.4-2.4,5.7-2.4
			c2.4,0,4.2,0.8,5.7,2.3c1.4,1.5,2.1,3.7,2.1,6.4l0,0.3h-12.5c0,1.6,0.6,2.8,1.6,3.8c1,1,2.2,1.4,3.6,1.4c1.9,0,3.4-1,4.5-2.9
			l2.7,1.3c-0.7,1.3-1.7,2.4-3,3.2S456.8,137.5,455.2,137.5z M450.4,127.1h9.2c-0.1-1.1-0.5-2-1.4-2.8s-1.9-1.1-3.3-1.1
			c-1.1,0-2.1,0.3-2.9,1C451.2,125,450.7,125.9,450.4,127.1z"/>
	</g>
	<g class="st5">
		<path class="st6" d="M468.5,113.7V137h-3v-23.3H468.5z"/>
	</g>
	<g class="st5">
		<path class="st6" d="M470.8,129c0-2.5,0.8-4.5,2.3-6.1c1.6-1.6,3.5-2.4,5.9-2.4s4.3,0.8,5.9,2.4c1.6,1.6,2.3,3.6,2.3,6.1
			c0,2.5-0.8,4.5-2.3,6.1c-1.5,1.6-3.5,2.4-5.9,2.4s-4.3-0.8-5.9-2.4C471.5,133.5,470.8,131.5,470.8,129z M473.8,129
			c0,1.7,0.5,3.1,1.5,4.2c1,1.1,2.2,1.6,3.7,1.6c1.5,0,2.7-0.5,3.7-1.6c1-1.1,1.5-2.5,1.5-4.2c0-1.7-0.5-3.1-1.5-4.1
			c-1-1.1-2.3-1.6-3.7-1.6s-2.7,0.5-3.7,1.6C474.3,126,473.8,127.3,473.8,129z"/>
	</g>
	<g class="st5">
		<path class="st6" d="M497.6,137.5c-1.2,0-2.2-0.2-3.2-0.7c-1-0.5-1.7-1.2-2.2-2H492l0.1,2.2v7h-3v-23h2.9v2.2h0.1
			c0.5-0.8,1.3-1.5,2.2-2c1-0.5,2-0.7,3.2-0.7c2.1,0,3.9,0.8,5.3,2.5c1.5,1.7,2.2,3.7,2.2,6c0,2.4-0.7,4.4-2.2,6
			C501.5,136.7,499.7,137.5,497.6,137.5z M497.1,134.8c1.4,0,2.6-0.5,3.6-1.6c1-1.1,1.5-2.4,1.5-4.1c0-1.7-0.5-3-1.5-4.1
			c-1-1.1-2.2-1.6-3.6-1.6c-1.5,0-2.7,0.5-3.6,1.6c-1,1.1-1.4,2.5-1.4,4.1c0,1.7,0.5,3.1,1.4,4.2
			C494.4,134.3,495.7,134.8,497.1,134.8z"/>
	</g>
	<g class="st5">
		<path class="st6" d="M514.7,137.5c-2.3,0-4.3-0.8-5.8-2.4c-1.5-1.6-2.3-3.6-2.3-6.1c0-2.4,0.7-4.5,2.2-6.1
			c1.5-1.6,3.4-2.4,5.7-2.4c2.4,0,4.2,0.8,5.7,2.3c1.4,1.5,2.1,3.7,2.1,6.4l0,0.3h-12.5c0,1.6,0.6,2.8,1.6,3.8c1,1,2.2,1.4,3.6,1.4
			c1.9,0,3.4-1,4.5-2.9l2.7,1.3c-0.7,1.3-1.7,2.4-3,3.2C517.7,137.1,516.3,137.5,514.7,137.5z M509.9,127.1h9.2
			c-0.1-1.1-0.5-2-1.4-2.8c-0.8-0.7-1.9-1.1-3.3-1.1c-1.1,0-2.1,0.3-2.9,1C510.7,125,510.2,125.9,509.9,127.1z"/>
	</g>
	<g class="st5">
		<path class="st6" d="M527.6,137h-3v-16h2.9v2.6h0.1c0.3-0.8,0.9-1.6,1.9-2.2c0.9-0.6,1.9-0.9,2.8-0.9c0.9,0,1.6,0.1,2.2,0.4
			l-0.9,2.9c-0.4-0.2-1-0.2-1.8-0.2c-1.1,0-2.1,0.5-2.9,1.4c-0.8,0.9-1.3,2-1.3,3.2V137z"/>
	</g>
	<g class="st5">
		<path class="st6" d="M558.5,130.8c0,2-0.7,3.7-2.2,4.9c-1.5,1.2-3.4,1.8-5.5,1.8c-1.9,0-3.6-0.6-5.1-1.7c-1.5-1.1-2.5-2.7-3.1-4.6
			l2.9-1.2c0.2,0.7,0.5,1.3,0.8,1.9c0.3,0.6,0.8,1,1.2,1.4c0.5,0.4,1,0.7,1.5,0.9c0.6,0.2,1.2,0.3,1.8,0.3c1.4,0,2.5-0.4,3.4-1.1
			c0.9-0.7,1.3-1.6,1.3-2.8c0-1-0.4-1.8-1.1-2.5c-0.7-0.7-1.9-1.3-3.8-2c-1.9-0.7-3-1.1-3.5-1.4c-2.5-1.3-3.7-3.1-3.7-5.6
			c0-1.7,0.7-3.2,2.1-4.4c1.4-1.2,3.1-1.8,5.1-1.8c1.8,0,3.3,0.5,4.6,1.4c1.3,0.9,2.2,2,2.6,3.4l-2.8,1.2c-0.3-0.9-0.8-1.6-1.5-2.2
			c-0.8-0.6-1.7-0.9-2.8-0.9c-1.2,0-2.2,0.3-3,1c-0.8,0.6-1.2,1.4-1.2,2.4c0,0.8,0.3,1.5,0.9,2.1c0.7,0.6,2.2,1.3,4.5,2.1
			c2.4,0.8,4.1,1.8,5.1,2.9C558,127.7,558.5,129.1,558.5,130.8z"/>
	</g>
	<g class="st5">
		<path class="st6" d="M567,137.3c-1.3,0-2.4-0.4-3.2-1.2c-0.9-0.8-1.3-1.9-1.3-3.4v-8.9h-2.8V121h2.8v-4.9h3v4.9h3.9v2.7h-3.9v7.9
			c0,1.1,0.2,1.8,0.6,2.2c0.4,0.4,0.9,0.6,1.4,0.6c0.2,0,0.5,0,0.7-0.1c0.2-0.1,0.4-0.1,0.6-0.2l0.9,2.7
			C568.9,137.1,568,137.3,567,137.3z"/>
	</g>
	<g class="st5">
		<path class="st6" d="M585.9,137H583v-2.2h-0.1c-0.5,0.8-1.2,1.4-2.1,2c-0.9,0.5-1.9,0.8-2.9,0.8c-2,0-3.5-0.6-4.5-1.7
			s-1.6-2.7-1.6-4.8v-10h3v9.8c0.1,2.6,1.4,3.9,3.9,3.9c1.2,0,2.2-0.5,3-1.4c0.8-1,1.2-2.1,1.2-3.5V121h3V137z"/>
	</g>
	<g class="st5">
		<path class="st6" d="M595.2,137.5c-2.1,0-3.9-0.8-5.4-2.5c-1.5-1.7-2.2-3.7-2.2-6s0.7-4.4,2.2-6c1.5-1.6,3.3-2.5,5.4-2.5
			c1.2,0,2.2,0.2,3.2,0.7c1,0.5,1.7,1.2,2.2,2h0.1l-0.1-2.2v-7.4h3V137h-2.9v-2.2h-0.1c-0.5,0.8-1.3,1.5-2.2,2
			C597.4,137.3,596.4,137.5,595.2,137.5z M595.7,134.8c1.5,0,2.7-0.5,3.6-1.6c1-1.1,1.5-2.5,1.5-4.2c0-1.7-0.5-3-1.5-4.1
			c-1-1.1-2.2-1.6-3.6-1.6c-1.4,0-2.6,0.5-3.6,1.6s-1.5,2.5-1.5,4.1c0,1.7,0.5,3.1,1.5,4.1C593.1,134.2,594.3,134.8,595.7,134.8z"/>
		<path class="st6" d="M614.3,137.5c-2.3,0-4.3-0.8-5.8-2.4c-1.5-1.6-2.3-3.6-2.3-6.1c0-2.4,0.7-4.5,2.2-6.1s3.4-2.4,5.7-2.4
			c2.4,0,4.2,0.8,5.7,2.3c1.4,1.5,2.1,3.7,2.1,6.4l0,0.3h-12.5c0,1.6,0.6,2.8,1.6,3.8c1,1,2.2,1.4,3.6,1.4c1.9,0,3.4-1,4.5-2.9
			l2.7,1.3c-0.7,1.3-1.7,2.4-3,3.2S615.9,137.5,614.3,137.5z M609.5,127.1h9.2c-0.1-1.1-0.5-2-1.4-2.8s-1.9-1.1-3.3-1.1
			c-1.1,0-2.1,0.3-2.9,1C610.3,125,609.8,125.9,609.5,127.1z"/>
	</g>
	<g class="st5">
		<path class="st6" d="M624.1,121h2.9v2.2h0.1c0.5-0.8,1.2-1.4,2.1-2c0.9-0.5,1.9-0.8,2.9-0.8c2,0,3.5,0.6,4.5,1.7
			c1.1,1.1,1.6,2.7,1.6,4.8v10h-3v-9.8c-0.1-2.6-1.4-3.9-3.9-3.9c-1.2,0-2.2,0.5-3,1.4c-0.8,1-1.2,2.1-1.2,3.5v8.8h-3V121z"/>
	</g>
	<g class="st5">
		<path class="st6" d="M646.9,137.3c-1.3,0-2.4-0.4-3.2-1.2c-0.9-0.8-1.3-1.9-1.3-3.4v-8.9h-2.8V121h2.8v-4.9h3v4.9h3.9v2.7h-3.9
			v7.9c0,1.1,0.2,1.8,0.6,2.2c0.4,0.4,0.9,0.6,1.4,0.6c0.2,0,0.5,0,0.7-0.1c0.2-0.1,0.4-0.1,0.6-0.2l0.9,2.7
			C648.8,137.1,647.9,137.3,646.9,137.3z"/>
	</g>
	<g class="st5">
		<path class="st6" d="M669.8,137.5c-3.5,0-6.3-1.2-8.7-3.5c-2.3-2.3-3.5-5.2-3.5-8.7s1.2-6.4,3.5-8.7c2.3-2.3,5.2-3.5,8.7-3.5
			c3.5,0,6.4,1.3,8.6,3.8l-2.1,2.1c-1.7-2-3.8-3-6.4-3c-2.6,0-4.7,0.9-6.5,2.6c-1.7,1.7-2.6,4-2.6,6.7s0.9,5,2.6,6.7
			c1.7,1.7,3.9,2.6,6.5,2.6c2.7,0,5.1-1.1,7.1-3.4l2.2,2.1c-1.1,1.3-2.5,2.4-4.1,3.1C673.3,137.2,671.6,137.5,669.8,137.5z"/>
	</g>
	<g class="st5">
		<path class="st6" d="M682.9,113.7V137h-3v-23.3H682.9z"/>
	</g>
	<g class="st5">
		<path class="st6" d="M700.5,137h-2.9v-2.2h-0.1c-0.5,0.8-1.2,1.4-2.1,2c-0.9,0.5-1.9,0.8-2.9,0.8c-2,0-3.5-0.6-4.5-1.7
			c-1.1-1.1-1.6-2.7-1.6-4.8v-10h3v9.8c0.1,2.6,1.4,3.9,3.9,3.9c1.2,0,2.2-0.5,3-1.4c0.8-1,1.2-2.1,1.2-3.5V121h3V137z"/>
	</g>
	<g class="st5">
		<path class="st6" d="M712.2,137.5c-1.2,0-2.2-0.2-3.2-0.7c-1-0.5-1.7-1.2-2.2-2h-0.1v2.2h-2.9v-23.3h3v7.4l-0.1,2.2h0.1
			c0.5-0.8,1.3-1.5,2.2-2c1-0.5,2-0.7,3.2-0.7c2.1,0,3.9,0.8,5.3,2.5c1.5,1.7,2.2,3.7,2.2,6c0,2.4-0.8,4.4-2.2,6
			C716,136.7,714.3,137.5,712.2,137.5z M711.7,134.8c1.4,0,2.6-0.5,3.6-1.6c1-1.1,1.5-2.4,1.5-4.1c0-1.7-0.5-3-1.5-4.1
			s-2.2-1.6-3.6-1.6c-1.5,0-2.7,0.5-3.6,1.6c-1,1.1-1.4,2.5-1.4,4.1c0,1.7,0.5,3.1,1.4,4.2C709,134.3,710.2,134.8,711.7,134.8z"/>
		<path class="st6" d="M734.5,132.6c0,1.4-0.6,2.6-1.8,3.5c-1.2,1-2.7,1.4-4.6,1.4c-1.6,0-3-0.4-4.2-1.3c-1.2-0.8-2.1-1.9-2.6-3.3
			l2.7-1.1c0.4,1,1,1.7,1.7,2.2c0.7,0.5,1.6,0.8,2.5,0.8c1,0,1.8-0.2,2.4-0.6c0.6-0.4,1-0.9,1-1.5c0-1-0.8-1.8-2.3-2.2l-2.7-0.7
			c-3.1-0.8-4.7-2.3-4.7-4.5c0-1.5,0.6-2.6,1.8-3.5c1.2-0.9,2.7-1.3,4.5-1.3c1.4,0,2.7,0.3,3.8,1c1.1,0.7,1.9,1.6,2.4,2.7l-2.7,1.1
			c-0.3-0.7-0.8-1.2-1.5-1.6c-0.7-0.4-1.4-0.6-2.3-0.6c-0.8,0-1.5,0.2-2.1,0.6c-0.6,0.4-0.9,0.9-0.9,1.4c0,0.9,0.9,1.6,2.6,2
			l2.4,0.6C732.9,128.6,734.5,130.2,734.5,132.6z"/>
	</g>
</g>
<g>
	<g class="st5">
		<path class="st6" d="M270.9,169.9h-2.1v-16h2.1V169.9z"/>
	</g>
	<g class="st5">
		<path class="st6" d="M273.8,158.9h2v1.5h0.1c0.3-0.5,0.8-1,1.4-1.3c0.6-0.4,1.3-0.5,2-0.5c1.3,0,2.4,0.4,3.1,1.2
			c0.7,0.8,1.1,1.9,1.1,3.3v6.9h-2.1v-6.7c0-1.8-0.9-2.7-2.7-2.7c-0.8,0-1.5,0.3-2.1,1c-0.6,0.7-0.8,1.5-0.8,2.4v6.1h-2.1V158.9z"/>
	</g>
	<g class="st5">
		<path class="st6" d="M289.8,170.2c-1.4,0-2.7-0.6-3.7-1.7c-1-1.1-1.5-2.5-1.5-4.1c0-1.6,0.5-3,1.5-4.1c1-1.1,2.3-1.7,3.7-1.7
			c0.8,0,1.5,0.2,2.2,0.5c0.7,0.3,1.2,0.8,1.5,1.4h0.1l-0.1-1.5v-5h2.1v16h-2v-1.5h-0.1c-0.4,0.6-0.9,1-1.5,1.4
			C291.3,170.1,290.6,170.2,289.8,170.2z M290.1,168.3c1,0,1.8-0.4,2.5-1.1c0.7-0.7,1-1.7,1-2.9c0-1.1-0.3-2.1-1-2.8
			c-0.7-0.7-1.5-1.1-2.5-1.1c-1,0-1.8,0.4-2.5,1.1c-0.7,0.7-1,1.7-1,2.8c0,1.2,0.3,2.1,1,2.8C288.3,168,289.1,168.3,290.1,168.3z"/>
		<path class="st6" d="M300.7,155.1c0,0.4-0.1,0.7-0.4,1c-0.3,0.3-0.6,0.4-1,0.4s-0.7-0.1-1-0.4c-0.3-0.3-0.4-0.6-0.4-1
			c0-0.4,0.1-0.7,0.4-1c0.3-0.3,0.6-0.4,1-0.4s0.7,0.1,1,0.4C300.6,154.4,300.7,154.7,300.7,155.1z M300.3,158.9v10.9h-2.1v-10.9
			H300.3z"/>
	</g>
	<g class="st5">
		<path class="st6" d="M307.1,158.6c1.5,0,2.7,0.4,3.6,1.2s1.3,1.9,1.3,3.3v6.7h-2v-1.5H310c-0.8,1.3-2,1.9-3.4,1.9
			c-1.2,0-2.2-0.4-3-1.1c-0.8-0.7-1.2-1.6-1.2-2.7c0-1.1,0.4-2,1.3-2.7c0.9-0.7,2-1,3.4-1c1.2,0,2.2,0.2,3,0.7V163
			c0-0.7-0.3-1.3-0.8-1.8c-0.6-0.5-1.2-0.7-2-0.7c-1.1,0-2.1,0.5-2.7,1.5l-1.8-1.1C303.7,159.3,305.2,158.6,307.1,158.6z
			 M304.5,166.5c0,0.5,0.2,1,0.7,1.3s1,0.5,1.6,0.5c0.9,0,1.6-0.3,2.3-1c0.7-0.6,1-1.4,1-2.3c-0.6-0.5-1.5-0.8-2.7-0.8
			c-0.8,0-1.5,0.2-2.1,0.6C304.8,165.4,304.5,165.9,304.5,166.5z"/>
	</g>
	<g class="st5">
		<path class="st6" d="M313.6,158.9h2v1.5h0.1c0.3-0.5,0.8-1,1.4-1.3c0.6-0.4,1.3-0.5,2-0.5c1.3,0,2.4,0.4,3.1,1.2
			c0.7,0.8,1.1,1.9,1.1,3.3v6.9h-2.1v-6.7c0-1.8-0.9-2.7-2.7-2.7c-0.8,0-1.5,0.3-2.1,1c-0.6,0.7-0.8,1.5-0.8,2.4v6.1h-2.1V158.9z"/>
	</g>
	<g class="st5">
		<path class="st6" d="M332.6,169.9h-2.1v-16h2.1V169.9z"/>
		<path class="st6" d="M335.4,158.9h2v1.5h0.1c0.3-0.5,0.8-1,1.4-1.3s1.3-0.5,2-0.5c1.3,0,2.4,0.4,3.1,1.2c0.7,0.8,1.1,1.9,1.1,3.3
			v6.9h-2.1v-6.7c0-1.8-0.9-2.7-2.7-2.7c-0.8,0-1.5,0.3-2.1,1c-0.6,0.7-0.8,1.5-0.8,2.4v6.1h-2.1V158.9z"/>
	</g>
	<g class="st5">
		<path class="st6" d="M355.9,166.8c0,1-0.4,1.8-1.3,2.4c-0.8,0.7-1.9,1-3.1,1c-1.1,0-2.1-0.3-2.9-0.9c-0.8-0.6-1.4-1.3-1.8-2.3
			l1.8-0.8c0.3,0.7,0.7,1.2,1.2,1.5c0.5,0.4,1.1,0.5,1.7,0.5c0.7,0,1.2-0.1,1.6-0.4c0.4-0.3,0.7-0.6,0.7-1c0-0.7-0.5-1.2-1.6-1.5
			l-1.9-0.5c-2.1-0.5-3.2-1.6-3.2-3.1c0-1,0.4-1.8,1.2-2.4c0.8-0.6,1.9-0.9,3.1-0.9c1,0,1.8,0.2,2.6,0.7c0.8,0.5,1.3,1.1,1.6,1.9
			l-1.8,0.8c-0.2-0.5-0.5-0.8-1-1.1c-0.5-0.3-1-0.4-1.6-0.4c-0.5,0-1,0.1-1.4,0.4c-0.4,0.3-0.6,0.6-0.6,1c0,0.6,0.6,1.1,1.8,1.3
			l1.7,0.4C354.8,164.1,355.9,165.2,355.9,166.8z"/>
	</g>
	<g class="st5">
		<path class="st6" d="M361.3,170c-0.9,0-1.6-0.3-2.2-0.8c-0.6-0.6-0.9-1.3-0.9-2.3v-6.1h-1.9v-1.9h1.9v-3.4h2.1v3.4h2.7v1.9h-2.7
			v5.4c0,0.7,0.1,1.2,0.4,1.5c0.3,0.3,0.6,0.4,1,0.4c0.2,0,0.3,0,0.5-0.1s0.3-0.1,0.4-0.1l0.6,1.8C362.6,169.9,362,170,361.3,170z"
			/>
	</g>
	<g class="st5">
		<path class="st6" d="M367.5,155.1c0,0.4-0.1,0.7-0.4,1c-0.3,0.3-0.6,0.4-1,0.4c-0.4,0-0.7-0.1-1-0.4c-0.3-0.3-0.4-0.6-0.4-1
			c0-0.4,0.1-0.7,0.4-1c0.3-0.3,0.6-0.4,1-0.4c0.4,0,0.7,0.1,1,0.4C367.4,154.4,367.5,154.7,367.5,155.1z M367.1,158.9v10.9H365
			v-10.9H367.1z"/>
	</g>
	<g class="st5">
		<path class="st6" d="M373.7,170c-0.9,0-1.6-0.3-2.2-0.8c-0.6-0.6-0.9-1.3-0.9-2.3v-6.1h-1.9v-1.9h1.9v-3.4h2.1v3.4h2.7v1.9h-2.7
			v5.4c0,0.7,0.1,1.2,0.4,1.5c0.3,0.3,0.6,0.4,1,0.4c0.2,0,0.3,0,0.5-0.1s0.3-0.1,0.4-0.1l0.6,1.8C375,169.9,374.4,170,373.7,170z"
			/>
		<path class="st6" d="M386.8,169.9h-2v-1.5h-0.1c-0.3,0.5-0.8,1-1.4,1.3c-0.6,0.4-1.3,0.5-2,0.5c-1.3,0-2.4-0.4-3.1-1.2
			c-0.7-0.8-1.1-1.9-1.1-3.3v-6.9h2.1v6.7c0,1.8,0.9,2.7,2.7,2.7c0.8,0,1.5-0.3,2.1-1c0.6-0.7,0.8-1.5,0.8-2.4v-6.1h2.1V169.9z"/>
	</g>
	<g class="st5">
		<path class="st6" d="M393.1,170c-0.9,0-1.6-0.3-2.2-0.8c-0.6-0.6-0.9-1.3-0.9-2.3v-6.1H388v-1.9h1.9v-3.4h2.1v3.4h2.7v1.9H392v5.4
			c0,0.7,0.1,1.2,0.4,1.5c0.3,0.3,0.6,0.4,1,0.4c0.2,0,0.3,0,0.5-0.1s0.3-0.1,0.4-0.1l0.6,1.8C394.4,169.9,393.8,170,393.1,170z"/>
		<path class="st6" d="M401.5,170.2c-1.6,0-2.9-0.6-4-1.7c-1-1.1-1.6-2.5-1.6-4.2c0-1.7,0.5-3.1,1.5-4.2c1-1.1,2.3-1.7,3.9-1.7
			c1.6,0,2.9,0.5,3.9,1.6s1.4,2.5,1.4,4.4l0,0.2H398c0,1.1,0.4,1.9,1.1,2.6c0.7,0.7,1.5,1,2.5,1c1.3,0,2.3-0.7,3.1-2l1.8,0.9
			c-0.5,0.9-1.2,1.6-2,2.2C403.6,170,402.6,170.2,401.5,170.2z M398.2,163.1h6.3c-0.1-0.8-0.4-1.4-0.9-1.9c-0.6-0.5-1.3-0.7-2.2-0.7
			c-0.8,0-1.4,0.2-2,0.7C398.7,161.6,398.4,162.3,398.2,163.1z"/>
	</g>
	<g class="st5">
		<path class="st6" d="M412,164.4c0-1.7,0.5-3.1,1.6-4.2c1.1-1.1,2.4-1.7,4-1.7s3,0.6,4,1.7c1.1,1.1,1.6,2.5,1.6,4.2
			c0,1.7-0.5,3.1-1.6,4.2c-1.1,1.1-2.4,1.7-4,1.7s-3-0.6-4-1.7C412.5,167.5,412,166.1,412,164.4z M414.1,164.4c0,1.2,0.3,2.1,1,2.9
			c0.7,0.7,1.5,1.1,2.5,1.1s1.9-0.4,2.5-1.1c0.7-0.7,1-1.7,1-2.9c0-1.2-0.3-2.1-1-2.8c-0.7-0.7-1.5-1.1-2.5-1.1s-1.8,0.4-2.5,1.1
			C414.4,162.3,414.1,163.2,414.1,164.4z"/>
		<path class="st6" d="M429.8,153.7c0.7,0,1.4,0.1,1.8,0.4l-0.6,1.8c-0.4-0.2-0.8-0.3-1.2-0.3c-0.5,0-0.9,0.2-1.2,0.5
			c-0.3,0.4-0.5,0.8-0.5,1.4v1.4h2.9v1.9h-2.9v9.1h-2.1v-9.1h-2.1v-1.9h2.1v-1.6c0-1.1,0.3-2,1-2.6S428.8,153.7,429.8,153.7z"/>
	</g>
	<g class="st5">
		<path class="st6" d="M446.4,153.9v2h-7.3v5.1h6.6v1.9h-6.6v5.1h7.3v2h-9.3v-16H446.4z"/>
	</g>
	<g class="st5">
		<path class="st6" d="M448.3,158.9h2v1.5h0.1c0.3-0.5,0.8-1,1.4-1.3c0.6-0.4,1.3-0.5,2-0.5c1.3,0,2.4,0.4,3.1,1.2
			c0.7,0.8,1.1,1.9,1.1,3.3v6.9h-2.1v-6.7c0-1.8-0.9-2.7-2.7-2.7c-0.8,0-1.5,0.3-2.1,1c-0.6,0.7-0.8,1.5-0.8,2.4v6.1h-2.1V158.9z"/>
	</g>
	<g class="st5">
		<path class="st6" d="M464.4,175c-0.6,0-1.2-0.1-1.7-0.2s-1-0.4-1.5-0.7c-0.4-0.3-0.8-0.6-1.1-1c-0.3-0.4-0.6-0.8-0.7-1.3l1.9-0.8
			c0.2,0.6,0.6,1.2,1.2,1.5s1.2,0.6,1.9,0.6c1.1,0,2-0.3,2.6-1c0.6-0.7,0.9-1.6,0.9-2.8v-1h-0.1c-0.4,0.6-0.9,1-1.6,1.4
			s-1.4,0.5-2.2,0.5c-1.4,0-2.7-0.6-3.7-1.7c-1-1.1-1.5-2.5-1.5-4.2s0.5-3,1.5-4.1c1-1.1,2.3-1.7,3.7-1.7c0.8,0,1.5,0.2,2.2,0.5
			s1.2,0.8,1.6,1.4h0.1v-1.5h2v10.5c0,1.8-0.5,3.1-1.5,4.1C467.4,174.5,466.1,175,464.4,175z M464.5,168.3c1,0,1.8-0.4,2.5-1.1
			c0.7-0.7,1-1.7,1-2.9c0-1.1-0.3-2.1-1-2.8c-0.7-0.7-1.5-1.1-2.5-1.1c-1,0-1.8,0.4-2.5,1.1c-0.7,0.7-1,1.7-1,2.8
			c0,1.2,0.3,2.1,1,2.8C462.7,168,463.5,168.3,464.5,168.3z"/>
	</g>
	<g class="st5">
		<path class="st6" d="M474.8,155.1c0,0.4-0.1,0.7-0.4,1c-0.3,0.3-0.6,0.4-1,0.4s-0.7-0.1-1-0.4c-0.3-0.3-0.4-0.6-0.4-1
			c0-0.4,0.1-0.7,0.4-1c0.3-0.3,0.6-0.4,1-0.4s0.7,0.1,1,0.4C474.7,154.4,474.8,154.7,474.8,155.1z M474.4,158.9v10.9h-2.1v-10.9
			H474.4z"/>
	</g>
	<g class="st5">
		<path class="st6" d="M477,158.9h2v1.5h0.1c0.3-0.5,0.8-1,1.4-1.3c0.6-0.4,1.3-0.5,2-0.5c1.3,0,2.4,0.4,3.1,1.2
			c0.7,0.8,1.1,1.9,1.1,3.3v6.9h-2.1v-6.7c0-1.8-0.9-2.7-2.7-2.7c-0.8,0-1.5,0.3-2.1,1c-0.6,0.7-0.8,1.5-0.8,2.4v6.1H477V158.9z"/>
		<path class="st6" d="M494,170.2c-1.6,0-2.9-0.6-4-1.7c-1-1.1-1.6-2.5-1.6-4.2c0-1.7,0.5-3.1,1.5-4.2c1-1.1,2.3-1.7,3.9-1.7
			c1.6,0,2.9,0.5,3.9,1.6s1.4,2.5,1.4,4.4l0,0.2h-8.6c0,1.1,0.4,1.9,1.1,2.6c0.7,0.7,1.5,1,2.5,1c1.3,0,2.3-0.7,3.1-2l1.8,0.9
			c-0.5,0.9-1.2,1.6-2,2.2C496.1,170,495.1,170.2,494,170.2z M490.7,163.1h6.3c-0.1-0.8-0.4-1.4-0.9-1.9c-0.6-0.5-1.3-0.7-2.2-0.7
			c-0.8,0-1.4,0.2-2,0.7C491.2,161.6,490.9,162.3,490.7,163.1z"/>
	</g>
	<g class="st5">
		<path class="st6" d="M505.5,170.2c-1.6,0-2.9-0.6-4-1.7c-1-1.1-1.6-2.5-1.6-4.2c0-1.7,0.5-3.1,1.5-4.2c1-1.1,2.3-1.7,3.9-1.7
			c1.6,0,2.9,0.5,3.9,1.6s1.4,2.5,1.4,4.4l0,0.2H502c0,1.1,0.4,1.9,1.1,2.6c0.7,0.7,1.5,1,2.5,1c1.3,0,2.3-0.7,3.1-2l1.8,0.9
			c-0.5,0.9-1.2,1.6-2,2.2C507.6,170,506.6,170.2,505.5,170.2z M502.2,163.1h6.3c-0.1-0.8-0.4-1.4-0.9-1.9c-0.6-0.5-1.3-0.7-2.2-0.7
			c-0.8,0-1.4,0.2-2,0.7C502.8,161.6,502.4,162.3,502.2,163.1z"/>
	</g>
	<g class="st5">
		<path class="st6" d="M514.3,169.9h-2.1v-10.9h2v1.8h0.1c0.2-0.6,0.6-1.1,1.3-1.5c0.6-0.4,1.3-0.6,1.9-0.6c0.6,0,1.1,0.1,1.5,0.3
			l-0.6,2c-0.3-0.1-0.7-0.2-1.2-0.2c-0.8,0-1.4,0.3-2,0.9c-0.6,0.6-0.9,1.4-0.9,2.2V169.9z"/>
	</g>
	<g class="st5">
		<path class="st6" d="M522.7,155.1c0,0.4-0.1,0.7-0.4,1c-0.3,0.3-0.6,0.4-1,0.4c-0.4,0-0.7-0.1-1-0.4c-0.3-0.3-0.4-0.6-0.4-1
			c0-0.4,0.1-0.7,0.4-1c0.3-0.3,0.6-0.4,1-0.4c0.4,0,0.7,0.1,1,0.4C522.5,154.4,522.7,154.7,522.7,155.1z M522.2,158.9v10.9h-2.1
			v-10.9H522.2z"/>
	</g>
	<g class="st5">
		<path class="st6" d="M524.9,158.9h2v1.5h0.1c0.3-0.5,0.8-1,1.4-1.3s1.3-0.5,2-0.5c1.3,0,2.4,0.4,3.1,1.2c0.7,0.8,1.1,1.9,1.1,3.3
			v6.9h-2.1v-6.7c0-1.8-0.9-2.7-2.7-2.7c-0.8,0-1.5,0.3-2.1,1c-0.6,0.7-0.8,1.5-0.8,2.4v6.1h-2.1V158.9z"/>
	</g>
	<g class="st5">
		<path class="st6" d="M541,175c-0.6,0-1.2-0.1-1.7-0.2s-1-0.4-1.5-0.7c-0.4-0.3-0.8-0.6-1.1-1c-0.3-0.4-0.6-0.8-0.7-1.3l1.9-0.8
			c0.2,0.6,0.6,1.2,1.2,1.5s1.2,0.6,1.9,0.6c1.1,0,2-0.3,2.6-1c0.6-0.7,0.9-1.6,0.9-2.8v-1h-0.1c-0.4,0.6-0.9,1-1.6,1.4
			s-1.4,0.5-2.2,0.5c-1.4,0-2.7-0.6-3.7-1.7c-1-1.1-1.5-2.5-1.5-4.2s0.5-3,1.5-4.1c1-1.1,2.3-1.7,3.7-1.7c0.8,0,1.5,0.2,2.2,0.5
			s1.2,0.8,1.6,1.4h0.1v-1.5h2v10.5c0,1.8-0.5,3.1-1.5,4.1C544,174.5,542.6,175,541,175z M541,168.3c1,0,1.8-0.4,2.5-1.1
			c0.7-0.7,1-1.7,1-2.9c0-1.1-0.3-2.1-1-2.8c-0.7-0.7-1.5-1.1-2.5-1.1c-1,0-1.8,0.4-2.5,1.1c-0.7,0.7-1,1.7-1,2.8
			c0,1.2,0.3,2.1,1,2.8C539.2,168,540.1,168.3,541,168.3z"/>
		<path class="st6" d="M563.5,165.6c0,1.4-0.5,2.5-1.5,3.4c-1,0.8-2.3,1.3-3.8,1.3c-1.3,0-2.5-0.4-3.5-1.2s-1.7-1.8-2.1-3.2l2-0.8
			c0.1,0.5,0.3,0.9,0.6,1.3c0.2,0.4,0.5,0.7,0.8,1c0.3,0.3,0.7,0.5,1.1,0.6s0.8,0.2,1.2,0.2c0.9,0,1.7-0.2,2.3-0.7
			c0.6-0.5,0.9-1.1,0.9-1.9c0-0.7-0.2-1.2-0.7-1.7c-0.5-0.5-1.3-0.9-2.6-1.3c-1.3-0.5-2.1-0.8-2.4-0.9c-1.7-0.9-2.5-2.1-2.5-3.8
			c0-1.2,0.5-2.2,1.4-3c1-0.8,2.1-1.3,3.5-1.3c1.2,0,2.3,0.3,3.2,0.9c0.9,0.6,1.5,1.4,1.8,2.3l-1.9,0.8c-0.2-0.6-0.5-1.1-1.1-1.5
			c-0.5-0.4-1.2-0.6-1.9-0.6c-0.8,0-1.5,0.2-2,0.7c-0.6,0.4-0.8,1-0.8,1.6c0,0.6,0.2,1,0.6,1.4c0.5,0.4,1.5,0.9,3.1,1.4
			c1.6,0.6,2.8,1.2,3.5,2C563.1,163.5,563.5,164.4,563.5,165.6z"/>
	</g>
	<g class="st5">
		<path class="st6" d="M571.3,170.2c-1.6,0-3-0.6-4-1.7c-1.1-1.1-1.6-2.5-1.6-4.2c0-1.7,0.5-3.1,1.6-4.2c1.1-1.1,2.4-1.7,4-1.7
			c1.1,0,2.1,0.3,2.9,0.8c0.8,0.6,1.5,1.3,1.9,2.3l-1.9,0.8c-0.6-1.4-1.6-2.1-3.1-2.1c-0.9,0-1.8,0.4-2.4,1.1c-0.7,0.8-1,1.7-1,2.8
			c0,1.1,0.3,2.1,1,2.8c0.7,0.8,1.5,1.1,2.4,1.1c1.5,0,2.6-0.7,3.2-2.1l1.8,0.8c-0.4,1-1,1.8-1.9,2.3
			C573.4,169.9,572.4,170.2,571.3,170.2z"/>
	</g>
	<g class="st5">
		<path class="st6" d="M580.1,155.1c0,0.4-0.1,0.7-0.4,1c-0.3,0.3-0.6,0.4-1,0.4s-0.7-0.1-1-0.4c-0.3-0.3-0.4-0.6-0.4-1
			c0-0.4,0.1-0.7,0.4-1c0.3-0.3,0.6-0.4,1-0.4s0.7,0.1,1,0.4C579.9,154.4,580.1,154.7,580.1,155.1z M579.7,158.9v10.9h-2.1v-10.9
			H579.7z"/>
	</g>
	<g class="st5">
		<path class="st6" d="M587.3,170.2c-1.6,0-2.9-0.6-4-1.7c-1-1.1-1.6-2.5-1.6-4.2c0-1.7,0.5-3.1,1.5-4.2c1-1.1,2.3-1.7,3.9-1.7
			c1.6,0,2.9,0.5,3.9,1.6c1,1,1.4,2.5,1.4,4.4l0,0.2h-8.6c0,1.1,0.4,1.9,1.1,2.6s1.5,1,2.5,1c1.3,0,2.3-0.7,3.1-2l1.8,0.9
			c-0.5,0.9-1.2,1.6-2,2.2C589.3,170,588.4,170.2,587.3,170.2z M584,163.1h6.3c-0.1-0.8-0.4-1.4-0.9-1.9s-1.3-0.7-2.2-0.7
			c-0.8,0-1.4,0.2-2,0.7C584.5,161.6,584.2,162.3,584,163.1z"/>
	</g>
	<g class="st5">
		<path class="st6" d="M593.8,158.9h2v1.5h0.1c0.3-0.5,0.8-1,1.4-1.3c0.6-0.4,1.3-0.5,2-0.5c1.3,0,2.4,0.4,3.1,1.2
			c0.7,0.8,1.1,1.9,1.1,3.3v6.9h-2.1v-6.7c0-1.8-0.9-2.7-2.7-2.7c-0.8,0-1.5,0.3-2.1,1c-0.6,0.7-0.8,1.5-0.8,2.4v6.1h-2.1V158.9z"/>
	</g>
	<g class="st5">
		<path class="st6" d="M609.9,170.2c-1.6,0-3-0.6-4-1.7c-1.1-1.1-1.6-2.5-1.6-4.2c0-1.7,0.5-3.1,1.6-4.2c1.1-1.1,2.4-1.7,4-1.7
			c1.1,0,2.1,0.3,2.9,0.8c0.8,0.6,1.5,1.3,1.9,2.3l-1.9,0.8c-0.6-1.4-1.6-2.1-3.1-2.1c-0.9,0-1.8,0.4-2.4,1.1c-0.7,0.8-1,1.7-1,2.8
			c0,1.1,0.3,2.1,1,2.8c0.7,0.8,1.5,1.1,2.4,1.1c1.5,0,2.6-0.7,3.2-2.1l1.8,0.8c-0.4,1-1,1.8-1.9,2.3
			C612.1,169.9,611.1,170.2,609.9,170.2z"/>
	</g>
	<g class="st5">
		<path class="st6" d="M620.6,170.2c-1.6,0-2.9-0.6-4-1.7c-1-1.1-1.6-2.5-1.6-4.2c0-1.7,0.5-3.1,1.5-4.2c1-1.1,2.3-1.7,3.9-1.7
			c1.6,0,2.9,0.5,3.9,1.6c1,1,1.4,2.5,1.4,4.4l0,0.2h-8.6c0,1.1,0.4,1.9,1.1,2.6s1.5,1,2.5,1c1.3,0,2.3-0.7,3.1-2l1.8,0.9
			c-0.5,0.9-1.2,1.6-2,2.2C622.7,170,621.7,170.2,620.6,170.2z M617.3,163.1h6.3c-0.1-0.8-0.4-1.4-0.9-1.9s-1.3-0.7-2.2-0.7
			c-0.8,0-1.4,0.2-2,0.7C617.9,161.6,617.5,162.3,617.3,163.1z"/>
	</g>
	<g class="st5">
		<path class="st6" d="M637.4,158.6c1.5,0,2.7,0.4,3.6,1.2c0.9,0.8,1.3,1.9,1.3,3.3v6.7h-2v-1.5h-0.1c-0.8,1.3-2,1.9-3.4,1.9
			c-1.2,0-2.2-0.4-3-1.1c-0.8-0.7-1.2-1.6-1.2-2.7c0-1.1,0.4-2,1.3-2.7c0.9-0.7,2-1,3.4-1c1.2,0,2.2,0.2,3,0.7V163
			c0-0.7-0.3-1.3-0.8-1.8c-0.6-0.5-1.2-0.7-2-0.7c-1.1,0-2.1,0.5-2.7,1.5l-1.8-1.1C634,159.3,635.5,158.6,637.4,158.6z M634.8,166.5
			c0,0.5,0.2,1,0.7,1.3c0.5,0.4,1,0.5,1.6,0.5c0.9,0,1.6-0.3,2.3-1c0.7-0.6,1-1.4,1-2.3c-0.6-0.5-1.5-0.8-2.7-0.8
			c-0.8,0-1.5,0.2-2.1,0.6C635.1,165.4,634.8,165.9,634.8,166.5z"/>
	</g>
	<g class="st5">
		<path class="st6" d="M644.6,158.9h2v1.5h0.1c0.3-0.5,0.8-1,1.4-1.3c0.6-0.4,1.3-0.5,2-0.5c1.3,0,2.4,0.4,3.1,1.2
			c0.7,0.8,1.1,1.9,1.1,3.3v6.9h-2.1v-6.7c0-1.8-0.9-2.7-2.7-2.7c-0.8,0-1.5,0.3-2.1,1c-0.6,0.7-0.8,1.5-0.8,2.4v6.1h-2.1V158.9z"/>
	</g>
	<g class="st5">
		<path class="st6" d="M660.4,170.2c-1.4,0-2.7-0.6-3.7-1.7c-1-1.1-1.5-2.5-1.5-4.1c0-1.6,0.5-3,1.5-4.1c1-1.1,2.3-1.7,3.7-1.7
			c0.8,0,1.5,0.2,2.2,0.5c0.7,0.3,1.2,0.8,1.5,1.4h0.1l-0.1-1.5v-5h2.1v16h-2v-1.5h-0.1c-0.4,0.6-0.9,1-1.5,1.4
			C662,170.1,661.2,170.2,660.4,170.2z M660.8,168.3c1,0,1.8-0.4,2.5-1.1c0.7-0.7,1-1.7,1-2.9c0-1.1-0.3-2.1-1-2.8
			c-0.7-0.7-1.5-1.1-2.5-1.1c-1,0-1.8,0.4-2.5,1.1c-0.7,0.7-1,1.7-1,2.8c0,1.2,0.3,2.1,1,2.8C658.9,168,659.8,168.3,660.8,168.3z"/>
		<path class="st6" d="M678.5,155.8v14h-2.1v-14H672v-2h11v2H678.5z"/>
		<path class="st6" d="M687.9,170.2c-1.6,0-2.9-0.6-4-1.7c-1-1.1-1.6-2.5-1.6-4.2c0-1.7,0.5-3.1,1.5-4.2c1-1.1,2.3-1.7,3.9-1.7
			c1.6,0,2.9,0.5,3.9,1.6c1,1,1.4,2.5,1.4,4.4l0,0.2h-8.6c0,1.1,0.4,1.9,1.1,2.6s1.5,1,2.5,1c1.3,0,2.3-0.7,3.1-2l1.8,0.9
			c-0.5,0.9-1.2,1.6-2,2.2C690,170,689,170.2,687.9,170.2z M684.6,163.1h6.3c-0.1-0.8-0.4-1.4-0.9-1.9s-1.3-0.7-2.2-0.7
			c-0.8,0-1.4,0.2-2,0.7C685.2,161.6,684.8,162.3,684.6,163.1z"/>
	</g>
	<g class="st5">
		<path class="st6" d="M699.7,170.2c-1.6,0-3-0.6-4-1.7c-1.1-1.1-1.6-2.5-1.6-4.2c0-1.7,0.5-3.1,1.6-4.2c1.1-1.1,2.4-1.7,4-1.7
			c1.1,0,2.1,0.3,2.9,0.8c0.8,0.6,1.5,1.3,1.9,2.3l-1.9,0.8c-0.6-1.4-1.6-2.1-3.1-2.1c-0.9,0-1.8,0.4-2.4,1.1c-0.7,0.8-1,1.7-1,2.8
			c0,1.1,0.3,2.1,1,2.8c0.7,0.8,1.5,1.1,2.4,1.1c1.5,0,2.6-0.7,3.2-2.1l1.8,0.8c-0.4,1-1,1.8-1.9,2.3
			C701.8,169.9,700.8,170.2,699.7,170.2z"/>
	</g>
	<g class="st5">
		<path class="st6" d="M705.8,153.9h2.1v5l-0.1,1.5h0.1c0.3-0.5,0.8-1,1.4-1.3s1.3-0.5,2-0.5c1.3,0,2.4,0.4,3.1,1.2
			c0.7,0.8,1.1,1.9,1.1,3.3v6.9h-2.1v-6.5c0-2-0.9-2.9-2.6-2.9c-0.8,0-1.5,0.3-2.1,1c-0.6,0.7-0.9,1.5-0.9,2.4v6h-2.1V153.9z"/>
	</g>
	<g class="st5">
		<path class="st6" d="M717.4,158.9h2v1.5h0.1c0.3-0.5,0.8-1,1.4-1.3s1.3-0.5,2-0.5c1.3,0,2.4,0.4,3.1,1.2c0.7,0.8,1.1,1.9,1.1,3.3
			v6.9H725v-6.7c0-1.8-0.9-2.7-2.7-2.7c-0.8,0-1.5,0.3-2.1,1c-0.6,0.7-0.8,1.5-0.8,2.4v6.1h-2.1V158.9z"/>
	</g>
	<g class="st5">
		<path class="st6" d="M728.6,164.4c0-1.7,0.5-3.1,1.6-4.2c1.1-1.1,2.4-1.7,4-1.7s3,0.6,4,1.7c1.1,1.1,1.6,2.5,1.6,4.2
			c0,1.7-0.5,3.1-1.6,4.2c-1.1,1.1-2.4,1.7-4,1.7s-3-0.6-4-1.7C729.1,167.5,728.6,166.1,728.6,164.4z M730.6,164.4
			c0,1.2,0.3,2.1,1,2.9c0.7,0.7,1.5,1.1,2.5,1.1c1,0,1.9-0.4,2.5-1.1c0.7-0.7,1-1.7,1-2.9c0-1.2-0.3-2.1-1-2.8
			c-0.7-0.7-1.5-1.1-2.5-1.1c-1,0-1.8,0.4-2.5,1.1C731,162.3,730.6,163.2,730.6,164.4z"/>
	</g>
	<g class="st5">
		<path class="st6" d="M743.3,153.9v16h-2.1v-16H743.3z"/>
	</g>
	<g class="st5">
		<path class="st6" d="M744.8,164.4c0-1.7,0.5-3.1,1.6-4.2c1.1-1.1,2.4-1.7,4-1.7s3,0.6,4,1.7c1.1,1.1,1.6,2.5,1.6,4.2
			c0,1.7-0.5,3.1-1.6,4.2c-1.1,1.1-2.4,1.7-4,1.7s-3-0.6-4-1.7C745.3,167.5,744.8,166.1,744.8,164.4z M746.8,164.4
			c0,1.2,0.3,2.1,1,2.9c0.7,0.7,1.5,1.1,2.5,1.1c1,0,1.9-0.4,2.5-1.1s1-1.7,1-2.9c0-1.2-0.3-2.1-1-2.8c-0.7-0.7-1.5-1.1-2.5-1.1
			c-1,0-1.8,0.4-2.5,1.1C747.2,162.3,746.8,163.2,746.8,164.4z"/>
	</g>
	<g class="st5">
		<path class="st6" d="M762.1,175c-0.6,0-1.2-0.1-1.7-0.2s-1-0.4-1.5-0.7s-0.8-0.6-1.1-1c-0.3-0.4-0.6-0.8-0.7-1.3l1.9-0.8
			c0.2,0.6,0.6,1.2,1.2,1.5s1.2,0.6,1.9,0.6c1.1,0,2-0.3,2.6-1s0.9-1.6,0.9-2.8v-1h-0.1c-0.4,0.6-0.9,1-1.6,1.4
			c-0.7,0.3-1.4,0.5-2.2,0.5c-1.4,0-2.7-0.6-3.7-1.7c-1-1.1-1.5-2.5-1.5-4.2s0.5-3,1.5-4.1c1-1.1,2.3-1.7,3.7-1.7
			c0.8,0,1.5,0.2,2.2,0.5c0.7,0.3,1.2,0.8,1.6,1.4h0.1v-1.5h2v10.5c0,1.8-0.5,3.1-1.5,4.1C765.1,174.5,763.8,175,762.1,175z
			 M762.2,168.3c1,0,1.8-0.4,2.5-1.1c0.7-0.7,1-1.7,1-2.9c0-1.1-0.3-2.1-1-2.8c-0.7-0.7-1.5-1.1-2.5-1.1c-1,0-1.8,0.4-2.5,1.1
			c-0.7,0.7-1,1.7-1,2.8c0,1.2,0.3,2.1,1,2.8C760.4,168,761.2,168.3,762.2,168.3z"/>
	</g>
	<g class="st5">
		<path class="st6" d="M779.5,158.9l-6.9,15.8h-2.1l2.5-5.5l-4.5-10.3h2.2l3.3,7.9h0l3.2-7.9H779.5z"/>
		<path class="st6" d="M779.9,172.4l-1-0.6l1.2-1.9c-0.3-0.1-0.6-0.2-0.8-0.5c-0.2-0.3-0.3-0.6-0.3-0.9c0-0.4,0.1-0.8,0.4-1.1
			s0.7-0.4,1.1-0.4c0.4,0,0.8,0.1,1.1,0.4c0.3,0.3,0.4,0.7,0.4,1.1c0,0.4-0.1,0.8-0.4,1.3L779.9,172.4z"/>
	</g>
	<g class="st5">
		<path class="st6" d="M799.8,165.6c0,1.4-0.5,2.5-1.5,3.4c-1,0.8-2.3,1.3-3.8,1.3c-1.3,0-2.5-0.4-3.5-1.2s-1.7-1.8-2.1-3.2l2-0.8
			c0.1,0.5,0.3,0.9,0.6,1.3c0.2,0.4,0.5,0.7,0.8,1c0.3,0.3,0.7,0.5,1.1,0.6c0.4,0.2,0.8,0.2,1.2,0.2c0.9,0,1.7-0.2,2.3-0.7
			c0.6-0.5,0.9-1.1,0.9-1.9c0-0.7-0.2-1.2-0.7-1.7c-0.5-0.5-1.3-0.9-2.6-1.3c-1.3-0.5-2.1-0.8-2.4-0.9c-1.7-0.9-2.5-2.1-2.5-3.8
			c0-1.2,0.5-2.2,1.4-3c1-0.8,2.1-1.3,3.5-1.3c1.2,0,2.3,0.3,3.2,0.9c0.9,0.6,1.5,1.4,1.8,2.3l-1.9,0.8c-0.2-0.6-0.5-1.1-1.1-1.5
			c-0.5-0.4-1.2-0.6-1.9-0.6c-0.8,0-1.5,0.2-2,0.7c-0.6,0.4-0.8,1-0.8,1.6c0,0.6,0.2,1,0.6,1.4c0.5,0.4,1.5,0.9,3.1,1.4
			c1.6,0.6,2.8,1.2,3.5,2C799.4,163.5,799.8,164.4,799.8,165.6z"/>
	</g>
	<g class="st5">
		<path class="st6" d="M800.5,153.9h2.1v5l-0.1,1.5h0.1c0.3-0.5,0.8-1,1.4-1.3s1.3-0.5,2-0.5c1.3,0,2.4,0.4,3.1,1.2
			c0.7,0.8,1.1,1.9,1.1,3.3v6.9h-2.1v-6.5c0-2-0.9-2.9-2.6-2.9c-0.8,0-1.5,0.3-2.1,1c-0.6,0.7-0.9,1.5-0.9,2.4v6h-2.1V153.9z"/>
	</g>
	<g class="st5">
		<path class="st6" d="M815,155.1c0,0.4-0.1,0.7-0.4,1c-0.3,0.3-0.6,0.4-1,0.4s-0.7-0.1-1-0.4c-0.3-0.3-0.4-0.6-0.4-1
			c0-0.4,0.1-0.7,0.4-1c0.3-0.3,0.6-0.4,1-0.4s0.7,0.1,1,0.4C814.9,154.4,815,154.7,815,155.1z M814.6,158.9v10.9h-2.1v-10.9H814.6z
			"/>
	</g>
	<g class="st5">
		<path class="st6" d="M823,170.2c-0.8,0-1.5-0.2-2.2-0.5c-0.7-0.3-1.2-0.8-1.5-1.4h-0.1v1.5h-2v-16h2.1v5l-0.1,1.5h0.1
			c0.4-0.6,0.9-1,1.5-1.4c0.7-0.3,1.4-0.5,2.2-0.5c1.4,0,2.7,0.6,3.7,1.7c1,1.1,1.5,2.5,1.5,4.1c0,1.6-0.5,3-1.5,4.1
			C825.7,169.7,824.5,170.2,823,170.2z M822.7,168.3c1,0,1.8-0.4,2.5-1.1c0.7-0.7,1-1.7,1-2.8c0-1.1-0.3-2.1-1-2.8
			c-0.7-0.7-1.5-1.1-2.5-1.1c-1,0-1.8,0.4-2.5,1.1c-0.7,0.7-1,1.7-1,2.8c0,1.2,0.3,2.1,1,2.9C820.9,168,821.7,168.3,822.7,168.3z"/>
	</g>
	<g class="st5">
		<path class="st6" d="M835.3,170.2c-0.8,0-1.5-0.2-2.2-0.5c-0.7-0.3-1.2-0.8-1.5-1.4h-0.1l0.1,1.5v4.8h-2.1v-15.8h2v1.5h0.1
			c0.4-0.6,0.9-1,1.5-1.4c0.7-0.3,1.4-0.5,2.2-0.5c1.4,0,2.7,0.6,3.7,1.7c1,1.1,1.5,2.5,1.5,4.1c0,1.6-0.5,3-1.5,4.1
			C838,169.7,836.7,170.2,835.3,170.2z M835,168.3c1,0,1.8-0.4,2.5-1.1c0.7-0.7,1-1.7,1-2.8c0-1.1-0.3-2.1-1-2.8
			c-0.7-0.7-1.5-1.1-2.5-1.1c-1,0-1.8,0.4-2.5,1.1c-0.7,0.7-1,1.7-1,2.8c0,1.2,0.3,2.1,1,2.9C833.1,168,834,168.3,835,168.3z"/>
		<path class="st6" d="M851.9,169.9h-2v-1.5h-0.1c-0.3,0.5-0.8,1-1.4,1.3s-1.3,0.5-2,0.5c-1.3,0-2.4-0.4-3.1-1.2
			c-0.7-0.8-1.1-1.9-1.1-3.3v-6.9h2.1v6.7c0,1.8,0.9,2.7,2.7,2.7c0.8,0,1.5-0.3,2.1-1c0.6-0.7,0.8-1.5,0.8-2.4v-6.1h2.1V169.9z"/>
	</g>
	<g class="st5">
		<path class="st6" d="M855.5,169.9h-2.1v-10.9h2v1.8h0.1c0.2-0.6,0.6-1.1,1.3-1.5c0.6-0.4,1.3-0.6,1.9-0.6c0.6,0,1.1,0.1,1.5,0.3
			l-0.6,2c-0.3-0.1-0.7-0.2-1.2-0.2c-0.8,0-1.4,0.3-2,0.9c-0.6,0.6-0.9,1.4-0.9,2.2V169.9z"/>
	</g>
</g>
</svg>
