<?xml version="1.0" encoding="utf-8"?>
<!-- Generator: Adobe Illustrator 25.2.1, SVG Export Plug-In . SVG Version: 6.00 Build 0)  -->
<svg version="1.1" id="Layer_1" xmlns="http://www.w3.org/2000/svg" xmlns:xlink="http://www.w3.org/1999/xlink" x="0px" y="0px"
	 viewBox="0 0 1128 191" style="enable-background:new 0 0 1128 191;" xml:space="preserve">
<style type="text/css">
	.st0{display:none;fill-rule:evenodd;clip-rule:evenodd;fill:#FFFFFF;}
	.st1{fill-rule:evenodd;clip-rule:evenodd;fill:#01A150;}
	.st2{fill-rule:evenodd;clip-rule:evenodd;fill:#547BBE;}
	.st3{fill-rule:evenodd;clip-rule:evenodd;fill:#E84536;}
	.st4{fill-rule:evenodd;clip-rule:evenodd;fill:#F8BB16;}
	.st5{fill:#787979;}
	.st6{font-family:'ProductSans-Regular';}
	.st7{font-size:32.5655px;}
	.st8{font-size:22.3341px;}
</style>
<rect id="White_Background" class="st0" width="1128" height="191"/>
<g id="GDSC_Logo">
	<path class="st1" d="M594.6,48c1.2,0.4,3.9,2,4.9,2.6c1.7,1,3.1,1.8,4.7,2.8c4,2.3,5.7,3.9,11.5,3.9c4.2-1,8.3-5.3,7.4-11.1
		c-0.9-5.5-5.3-7-9.4-9.4c-7.9-4.7-15.9-9.3-23.8-13.8c-3.8-2.1-8.6-5.8-13.9-3c-3.7,2-6.9,7.2-4.2,12.8c1.2,2.5,2.4,3.1,4.8,4.6
		c2,1.2,3.8,2.2,6,3.4L594.6,48L594.6,48z"/>
	<path class="st2" d="M510.8,38.7c-2.5,1.1-3.8,1.9-5.1,4c-1.4,2.2-1.9,4.9-1.1,7.7c1.2,4.7,5.9,6.6,9.9,8.9
		c8,4.5,15.6,9.2,23.6,13.6c3.8,2.2,8.1,5.6,13.6,2.6c3.6-1.9,6.7-7.4,3.9-12.9c-2.7-5.3-18.5-11-22.6-14.9c-3.3-1.4-7.1-4-10.4-5.9
		C519.1,40,515.7,37.4,510.8,38.7L510.8,38.7z"/>
	<path class="st3" d="M510.8,38.7c5-1.3,8.3,1.3,11.7,3.2c3.3,1.8,7.1,4.4,10.4,5.9L551.5,37c2.2-1.3,2.6-1.4,3.7-3.5
		c3.5-6.2,0.2-12.6-5.3-14.2c-6-1.7-13.4,4.4-20.4,8.4c-3.2,1.8-6.2,3.5-9.3,5.4C518,34.3,512,37.5,510.8,38.7L510.8,38.7z"/>
	<path class="st4" d="M615.7,57.3c-5.8,0-7.5-1.6-11.5-3.9c-1.7-1-3.1-1.8-4.7-2.8c-1-0.6-3.7-2.2-4.9-2.6c-2.8,1.3-6.5,3.6-9.2,5.2
		c-7.7,4.7-14.9,6.6-14.6,14.4c0.2,4.1,3.2,7.3,6.3,8.4c4.8,1.7,7.5-0.5,10.8-2.3L615,58C615.6,57.5,615.3,57.8,615.7,57.3
		L615.7,57.3z"/>
</g>
<g>
	<text transform="matrix(1 0 0 1 393.0039 137.0051)" class="st5 st6 st7">Dev</text>
	<text transform="matrix(1 0 0 1 446.2439 137.0051)" class="st5 st6 st7">e</text>
	<text transform="matrix(1 0 0 1 463.7039 137.0051)" class="st5 st6 st7">l</text>
	<text transform="matrix(1 0 0 1 469.8539 137.0051)" class="st5 st6 st7">o</text>
	<text transform="matrix(1 0 0 1 487.4739 137.0051)" class="st5 st6 st7">p</text>
	<text transform="matrix(1 0 0 1 505.7139 137.0051)" class="st5 st6 st7">e</text>
	<text transform="matrix(1 0 0 1 522.8039 137.0051)" class="st5 st6 st7">r </text>
	<text transform="matrix(1 0 0 1 541.7939 137.0051)" class="st5 st6 st7">S</text>
	<text transform="matrix(1 0 0 1 558.8239 137.0051)" class="st5 st6 st7">t</text>
	<text transform="matrix(1 0 0 1 570.0239 137.0051)" class="st5 st6 st7">u</text>
	<text transform="matrix(1 0 0 1 586.7039 137.0051)" class="st5 st6 st7">de</text>
	<text transform="matrix(1 0 0 1 622.2639 137.0051)" class="st5 st6 st7">n</text>
	<text transform="matrix(1 0 0 1 638.7439 137.0051)" class="st5 st6 st7">t </text>
	<text transform="matrix(1 0 0 1 656.4338 137.0051)" class="st5 st6 st7">C</text>
	<text transform="matrix(1 0 0 1 678.0339 137.0051)" class="st5 st6 st7">l</text>
	<text transform="matrix(1 0 0 1 684.6741 137.0051)" class="st5 st6 st7">u</text>
	<text transform="matrix(1 0 0 1 701.9038 137.0051)" class="st5 st6 st7">bs</text>
</g>
<g>
	<text transform="matrix(1 0 0 1 267.2341 169.8672)" class="st5 st6 st8">I</text>
	<text transform="matrix(1 0 0 1 272.5041 169.8672)" class="st5 st6 st8">n</text>
	<text transform="matrix(1 0 0 1 283.9641 169.8672)" class="st5 st6 st8">di</text>
	<text transform="matrix(1 0 0 1 301.7441 169.8672)" class="st5 st6 st8">a</text>
	<text transform="matrix(1 0 0 1 312.3441 169.8672)" class="st5 st6 st8">n</text>
	<text transform="matrix(1 0 0 1 328.9241 169.8672)" class="st5 st6 st8">In</text>
	<text transform="matrix(1 0 0 1 346.2941 169.8672)" class="st5 st6 st8">s</text>
	<text transform="matrix(1 0 0 1 355.6941 169.8672)" class="st5 st6 st8">t</text>
	<text transform="matrix(1 0 0 1 363.6041 169.8672)" class="st5 st6 st8">i</text>
	<text transform="matrix(1 0 0 1 368.0741 169.8672)" class="st5 st6 st8">tu</text>
	<text transform="matrix(1 0 0 1 387.5041 169.8672)" class="st5 st6 st8">te</text>
	<text transform="matrix(1 0 0 1 411.3741 169.8672)" class="st5 st6 st8">of</text>
	<text transform="matrix(1 0 0 1 435.5041 169.8672)" class="st5 st6 st8">E</text>
	<text transform="matrix(1 0 0 1 447.0441 169.8672)" class="st5 st6 st8">n</text>
	<text transform="matrix(1 0 0 1 458.3241 169.8672)" class="st5 st6 st8">g</text>
	<text transform="matrix(1 0 0 1 470.9241 169.8672)" class="st5 st6 st8">i</text>
	<text transform="matrix(1 0 0 1 475.7041 169.8672)" class="st5 st6 st8">ne</text>
	<text transform="matrix(1 0 0 1 499.3241 169.8672)" class="st5 st6 st8">e</text>
	<text transform="matrix(1 0 0 1 510.9641 169.8672)" class="st5 st6 st8">r</text>
	<text transform="matrix(1 0 0 1 518.7641 169.8672)" class="st5 st6 st8">i</text>
	<text transform="matrix(1 0 0 1 523.6741 169.8672)" class="st5 st6 st8">n</text>
	<text transform="matrix(1 0 0 1 534.8841 169.8672)" class="st5 st6 st8">g S</text>
	<text transform="matrix(1 0 0 1 565.0141 169.8672)" class="st5 st6 st8">c</text>
	<text transform="matrix(1 0 0 1 576.1741 169.8672)" class="st5 st6 st8">i</text>
	<text transform="matrix(1 0 0 1 581.0941 169.8672)" class="st5 st6 st8">e</text>
	<text transform="matrix(1 0 0 1 592.5741 169.8672)" class="st5 st6 st8">n</text>
	<text transform="matrix(1 0 0 1 603.6741 169.8672)" class="st5 st6 st8">c</text>
	<text transform="matrix(1 0 0 1 614.4641 169.8672)" class="st5 st6 st8">e</text>
	<text transform="matrix(1 0 0 1 632.0342 169.8672)" class="st5 st6 st8">a</text>
	<text transform="matrix(1 0 0 1 643.3141 169.8672)" class="st5 st6 st8">n</text>
	<text transform="matrix(1 0 0 1 654.5941 169.8672)" class="st5 st6 st8">d Te</text>
	<text transform="matrix(1 0 0 1 693.4041 169.8672)" class="st5 st6 st8">c</text>
	<text transform="matrix(1 0 0 1 704.5941 169.8672)" class="st5 st6 st8">h</text>
	<text transform="matrix(1 0 0 1 716.134 169.8672)" class="st5 st6 st8">n</text>
	<text transform="matrix(1 0 0 1 727.9541 169.8672)" class="st5 st6 st8">o</text>
	<text transform="matrix(1 0 0 1 739.9641 169.8672)" class="st5 st6 st8">l</text>
	<text transform="matrix(1 0 0 1 744.1641 169.8672)" class="st5 st6 st8">o</text>
	<text transform="matrix(1 0 0 1 756.0242 169.8672)" class="st5 st6 st8">g</text>
	<text transform="matrix(1 0 0 1 768.4441 169.8672)" class="st5 st6 st8">y,</text>
	<text transform="matrix(1 0 0 1 788.2739 169.8672)" class="st5 st6 st8">S</text>
	<text transform="matrix(1 0 0 1 799.2942 169.8672)" class="st5 st6 st8">h</text>
	<text transform="matrix(1 0 0 1 811.0841 169.8672)" class="st5 st6 st8">i</text>
	<text transform="matrix(1 0 0 1 816.0042 169.8672)" class="st5 st6 st8">b</text>
	<text transform="matrix(1 0 0 1 828.3541 169.8672)" class="st5 st6 st8">pu</text>
	<text transform="matrix(1 0 0 1 852.1541 169.8672)" class="st5 st6 st8">r</text>
</g>
</svg>
