<?xml version="1.0" encoding="UTF-8"?>
<!DOCTYPE svg PUBLIC "-//W3C//DTD SVG 1.1//EN" "http://www.w3.org/Graphics/SVG/1.1/DTD/svg11.dtd">
<!-- Creator: CorelDRAW 2019 (64-Bit) -->
<svg xmlns="http://www.w3.org/2000/svg" xml:space="preserve" width="8.5in" height="11in" version="1.1" style="shape-rendering:geometricPrecision; text-rendering:geometricPrecision; image-rendering:optimizeQuality; fill-rule:evenodd; clip-rule:evenodd"
viewBox="0 0 8500 11000"
 xmlns:xlink="http://www.w3.org/1999/xlink">
 <defs>
  <style type="text/css">
   <![CDATA[
    .fil0 {fill:#00A150}
    .fil1 {fill:#4282F2}
    .fil4 {fill:#777777}
    .fil2 {fill:#E84336}
    .fil3 {fill:#F9BB09}
   ]]>
  </style>
 </defs>
 <g id="Layer_x0020_1">
  <metadata id="CorelCorpID_0Corel-Layer"/>
  <g id="_2475022928144">
   <path class="fil0" d="M5105.81 5508.07c34.67,10.86 107.19,56.45 135.77,73.15 46.35,27.09 84.94,50.32 131.01,77.27 110.24,64.49 157.42,108.26 318.11,108.09 117.35,-29.04 229.47,-146.54 204.04,-307.69 -24.06,-152.41 -145.92,-192.44 -260.26,-260.08 -218.91,-129.5 -439.46,-257.26 -659.89,-381.53 -105.09,-59.25 -238.18,-160.42 -385.28,-81.97 -102.16,54.48 -190.54,200.3 -115.12,352.98 34.71,70.28 65.52,86.65 132.91,127.4 54.3,32.83 105.65,61.96 165.16,95.3l333.56 197.07z"/>
   <path class="fil1" d="M2786.63 5251.25c-70.7,30.97 -104.04,52.45 -142.64,111.29 -39.21,59.77 -51.24,136.31 -31.37,213.44 33.73,130.92 161.93,181.54 274.58,245.24 220.36,124.58 432.62,253.65 653.78,377.28 106.67,59.63 223.26,154.42 375.39,71.85 99.48,-54 185.87,-205.44 107.65,-356.77 -75.93,-146.88 -512.97,-305.45 -626.58,-412.37 -92.77,-39.71 -197.15,-111 -288.46,-162.13 -91.26,-51.1 -185.13,-124.15 -322.34,-87.81z"/>
   <path class="fil2" d="M2786.63 5251.25c137.21,-36.33 231.08,36.71 322.34,87.81 91.32,51.14 195.7,122.42 288.46,162.13l515.11 -296.91c59.67,-34.83 71.77,-39.88 102.59,-95.45 95.66,-172.46 4.25,-348.8 -147.84,-392.03 -164.59,-46.79 -370.44,123.05 -565.08,231.19 -87.81,48.78 -170.84,97.4 -257.94,148.26 -55.88,32.63 -224.72,121.75 -257.64,155z"/>
   <path class="fil3" d="M5690.7 5766.59c-160.69,0.17 -207.87,-43.6 -318.11,-108.09 -46.07,-26.95 -84.65,-50.18 -131.01,-77.27 -28.59,-16.7 -101.1,-62.3 -135.77,-73.15 -77.72,35.26 -180.99,99.37 -255.53,144.42 -213.17,128.82 -412.13,182.46 -403,399.61 4.75,112.9 88.02,203.2 173.34,233.52 133.28,47.37 207.77,-14.36 298.85,-64.03l752.76 -436.08c14.74,-12.75 6.99,-5.29 18.46,-18.91z"/>
   <path class="fil4" d="M2986.46 7343.49c128.66,0 354.8,25.22 353.88,-218.69 -0.77,-206.1 -158.14,-216.93 -351.35,-216.93l-2.53 435.62zm56.19 -54.18c139.53,3.45 241.26,-18.33 240.57,-164.56 -0.68,-144.1 -102.72,-165.66 -237.58,-162.8l-2.98 327.35z"/>
   <path class="fil4" d="M3381.57 7229.43c18.42,151.47 250.95,164.85 287.81,33.52 55.22,-196.75 -234.81,-138.82 -215.94,-265.52 17.14,-32.22 51.35,-56.1 100.7,-41.5 92.57,27.39 -5.46,62.24 105.23,34.79 -20,-79.64 -130.7,-121.79 -209.49,-72.32 -85.11,53.44 -68.16,158.48 13.51,201.16 51.9,27.13 224.69,60.68 135.68,156.26 -25.24,27.1 -83.21,30.84 -120.29,6.32 -68.58,-45.35 -7.46,-75.73 -97.22,-52.71z"/>
   <path class="fil4" d="M4912.63 7229.43c18.42,151.47 250.95,164.85 287.81,33.52 55.22,-196.75 -234.81,-138.82 -215.94,-265.52 17.14,-32.22 51.36,-56.1 100.7,-41.5 92.57,27.39 -5.46,62.24 105.23,34.79 -20,-79.64 -130.7,-121.79 -209.49,-72.32 -85.11,53.44 -68.16,158.48 13.51,201.16 51.91,27.13 224.69,60.68 135.68,156.26 -25.24,27.1 -83.21,30.84 -120.29,6.32 -68.58,-45.35 -7.46,-75.73 -97.21,-52.71z"/>
   <path class="fil4" d="M4606.13 7341.42l254.51 1.47 -0 -48.5 -196.32 -4.93 -2.42 -137.63 176.04 -0.43 3.82 -48.11 -177.78 -5.02 -1.54 -132.74 198.18 -4.6c-0.92,-74.99 -14.94,-54.84 -100.12,-53.29 -50.94,0.93 -102.06,-1.5 -152.85,1.97l-1.52 431.81z"/>
   <path class="fil4" d="M4113.28 7270.61l-26.11 -31.73c-55.5,22.65 -93.98,82.57 -191.58,53.47 -67.02,-19.98 -113.89,-70.91 -117.22,-157.07 -7.07,-183.25 181.93,-228.56 290.2,-129.76l34.99 -34.99c-133.08,-151.78 -388.95,-51.46 -382.57,164.23 7.55,255.06 344.89,266.16 392.29,135.85z"/>
   <path class="fil4" d="M5243.71 6926.91c7.8,52.01 -21.43,29.16 46.19,36.13 12.13,1.25 55.63,-1.61 71.94,-1.61l3.8 381.14 55.68 0.93 0.3 -378.73 121.33 -3.86 -1.95 -53.04 -229.5 -1.06c-64.02,0.17 -52.72,9.78 -67.79,20.1z"/>
   <polygon class="fil4" points="4462.96,7338.81 4518.94,7343.28 4518.81,6909.32 4463.9,6909.89 "/>
   <polygon class="fil4" points="4319.62,7343.49 4375.8,7343.49 4375.57,6907.86 4322.15,6907.87 "/>
  </g>
 </g>
</svg>
