<svg id="Layer_1" data-name="Layer 1" xmlns="http://www.w3.org/2000/svg" viewBox="0 0 503.77 224.69"><defs><style>.cls-1{fill:#fff;}</style></defs><path class="cls-1" d="M0,134.75H10.19a18.33,18.33,0,0,1,9,2.13,14.69,14.69,0,0,1,5.91,5.94,19.44,19.44,0,0,1,0,17.46,14.57,14.57,0,0,1-5.91,5.94,18.22,18.22,0,0,1-9,2.14H0Zm10.19,29.81q6,0,9.43-3.43t3.48-9.58q0-6.15-3.48-9.57t-9.43-3.43H4v26Z"/><path class="cls-1" d="M35.44,168.29a11.12,11.12,0,0,1-4.16-4.41,13.39,13.39,0,0,1-1.5-6.39,13.82,13.82,0,0,1,1.41-6.22,11.13,11.13,0,0,1,4-4.5,10.88,10.88,0,0,1,6-1.67,11.37,11.37,0,0,1,5.94,1.53,10.12,10.12,0,0,1,3.92,4.29,14.44,14.44,0,0,1,1.36,6.39,3,3,0,0,1-.1.94H33.82a8.43,8.43,0,0,0,1.27,4.43,7.48,7.48,0,0,0,2.93,2.7,7.89,7.89,0,0,0,3.64.89c2.94,0,5.21-1.43,6.81-4.32l3.52,1.7a12.14,12.14,0,0,1-4.16,4.52,11.41,11.41,0,0,1-6.36,1.72A11.42,11.42,0,0,1,35.44,168.29Zm12.74-13.38a7.28,7.28,0,0,0-.8-2.81,6,6,0,0,0-2.27-2.4,7.42,7.42,0,0,0-4-1,6.66,6.66,0,0,0-4.56,1.69,7.59,7.59,0,0,0-2.44,4.5Z"/><path class="cls-1" d="M53.44,145.76h4.32l7.13,18.59H65l7.23-18.59h4.22l-9.53,23.29h-4Z"/><path class="cls-1" d="M82.56,167.51a11.12,11.12,0,0,1-4.16-4.41,13.35,13.35,0,0,1-1.5-6.38,13.76,13.76,0,0,1,1.41-6.22,11,11,0,0,1,4-4.51,10.88,10.88,0,0,1,6-1.67,11.31,11.31,0,0,1,5.93,1.53,10,10,0,0,1,3.92,4.29,14.3,14.3,0,0,1,1.37,6.39,3.35,3.35,0,0,1-.1.94H80.94a8.52,8.52,0,0,0,1.26,4.43,7.44,7.44,0,0,0,2.94,2.7,7.85,7.85,0,0,0,3.63.89c3,0,5.22-1.43,6.81-4.32l3.52,1.7A12,12,0,0,1,95,167.39a12.39,12.39,0,0,1-12.39.12ZM95.3,154.13a7.33,7.33,0,0,0-.8-2.81,6.1,6.1,0,0,0-2.27-2.4,7.53,7.53,0,0,0-4-1,6.65,6.65,0,0,0-4.55,1.69,7.59,7.59,0,0,0-2.44,4.5Z"/><path class="cls-1" d="M104.24,134.75h4v33.61h-4Z"/><path class="cls-1" d="M117.72,167.49a11.31,11.31,0,0,1-4.24-4.46,13.8,13.8,0,0,1,0-12.63,11.31,11.31,0,0,1,4.24-4.46,12.54,12.54,0,0,1,12.33,0,11.31,11.31,0,0,1,4.27,4.46,13.8,13.8,0,0,1,0,12.63,11.31,11.31,0,0,1-4.27,4.46,12.54,12.54,0,0,1-12.33,0Zm10.1-3.08a7.82,7.82,0,0,0,2.93-3.07,10.27,10.27,0,0,0,0-9.25,7.88,7.88,0,0,0-2.93-3.07,7.65,7.65,0,0,0-3.95-1.08A7.54,7.54,0,0,0,120,149a8,8,0,0,0-2.94,3.07,10.27,10.27,0,0,0,0,9.25,7.91,7.91,0,0,0,2.94,3.07,7.54,7.54,0,0,0,3.89,1.08A7.65,7.65,0,0,0,127.82,164.41Z"/><path class="cls-1" d="M139.74,145.07h3.8v3.43h.19a8.93,8.93,0,0,1,3.24-3,9.67,9.67,0,0,1,4.88-1.2,10.09,10.09,0,0,1,5.54,1.62,11.62,11.62,0,0,1,4,4.44,14,14,0,0,1,0,12.67,11.62,11.62,0,0,1-4,4.44,10.09,10.09,0,0,1-5.54,1.62,9.87,9.87,0,0,1-4.91-1.2,8.33,8.33,0,0,1-3.21-3h-.19l.19,3.24V178.5h-4Zm15.32,19.34a7.64,7.64,0,0,0,2.82-3.07,10.62,10.62,0,0,0,0-9.25,7.7,7.7,0,0,0-2.82-3.07,7.14,7.14,0,0,0-3.82-1.08,7.36,7.36,0,0,0-3.83,1.05,7.68,7.68,0,0,0-2.82,3.06,10.84,10.84,0,0,0,0,9.31,7.67,7.67,0,0,0,2.82,3.08,7.36,7.36,0,0,0,3.83,1.05A7.14,7.14,0,0,0,155.06,164.41Z"/><path class="cls-1" d="M171.24,168.51a11.17,11.17,0,0,1-4.15-4.41,13.35,13.35,0,0,1-1.5-6.38A13.76,13.76,0,0,1,167,151.5a11,11,0,0,1,4-4.51,10.87,10.87,0,0,1,6-1.67,11.32,11.32,0,0,1,5.94,1.53,10.06,10.06,0,0,1,3.92,4.29,14.3,14.3,0,0,1,1.36,6.39,3.44,3.44,0,0,1-.09.94h-18.5a8.62,8.62,0,0,0,1.27,4.43,7.44,7.44,0,0,0,2.94,2.7,7.85,7.85,0,0,0,3.63.89c2.95,0,5.22-1.43,6.81-4.32l3.52,1.7a12,12,0,0,1-4.15,4.52,12.41,12.41,0,0,1-12.4.12ZM184,155.13a7.33,7.33,0,0,0-.8-2.81,6.06,6.06,0,0,0-2.28-2.4,7.47,7.47,0,0,0-4-1,6.65,6.65,0,0,0-4.55,1.69,7.59,7.59,0,0,0-2.44,4.5Z"/><path class="cls-1" d="M192.25,146.07h3.8v3.81h.19a6.25,6.25,0,0,1,2.7-3.24,7.45,7.45,0,0,1,4.06-1.32,7.81,7.81,0,0,1,2.72.47v4.27a6.82,6.82,0,0,0-3.28-.7,5.44,5.44,0,0,0-3.08,1,7,7,0,0,0-2.27,2.57,7.26,7.26,0,0,0-.85,3.48v13h-4Z"/><path class="cls-1" d="M224.21,169.05A12.14,12.14,0,0,1,220,166a12.34,12.34,0,0,1-2.6-5l3.8-1.55a9.75,9.75,0,0,0,3,4.93,7.33,7.33,0,0,0,5,1.93,7.87,7.87,0,0,0,5-1.58,5.16,5.16,0,0,0,2-4.29,4.94,4.94,0,0,0-1.71-3.87,16.41,16.41,0,0,0-5.61-2.84l-2.11-.76a16.67,16.67,0,0,1-5.82-3.33,7.39,7.39,0,0,1-2.26-5.73,8,8,0,0,1,1.32-4.43,9.45,9.45,0,0,1,3.64-3.26,11,11,0,0,1,5.23-1.23,11.32,11.32,0,0,1,5.09,1.08,10.64,10.64,0,0,1,3.48,2.63,9.22,9.22,0,0,1,1.76,3.06l-3.71,1.59a6.47,6.47,0,0,0-2.16-3.17A6.55,6.55,0,0,0,229,138.8a6.87,6.87,0,0,0-4.42,1.45,4.49,4.49,0,0,0-1.83,3.66,4,4,0,0,0,1.55,3.22,15.84,15.84,0,0,0,4.7,2.32l2.15.75a18.83,18.83,0,0,1,6.69,3.88,8.31,8.31,0,0,1,2.42,6.31,8.73,8.73,0,0,1-1.67,5.45,9.83,9.83,0,0,1-4.2,3.24,14,14,0,0,1-5.25,1A11.86,11.86,0,0,1,224.21,169.05Z"/><path class="cls-1" d="M250.93,168.63a6.45,6.45,0,0,1-2-1.29,5.64,5.64,0,0,1-1.38-2.13,8.35,8.35,0,0,1-.45-2.89V148.69h-4.13v-3.62h4.13v-6.94H251v6.94h5.72v3.62H251v12.68a4.6,4.6,0,0,0,.79,3,2.86,2.86,0,0,0,2.45,1.06,4.77,4.77,0,0,0,2.53-.66v3.85a8,8,0,0,1-1.43.4,10.94,10.94,0,0,1-1.81.12A7,7,0,0,1,250.93,168.63Z"/><path class="cls-1" d="M263,166.62a10,10,0,0,1-2.23-6.9V145.07h4v14q0,6.44,5.78,6.43a5.84,5.84,0,0,0,3.45-1.08,7,7,0,0,0,2.34-2.81,8.45,8.45,0,0,0,.83-3.66V145.07h3.94v23.29h-3.76v-3.48h-.18a8.41,8.41,0,0,1-3.13,3,8.75,8.75,0,0,1-4.48,1.22Q265.18,169.11,263,166.62Z"/><path class="cls-1" d="M290.44,167.51a11.4,11.4,0,0,1-4-4.43,14.25,14.25,0,0,1,0-12.73,11.4,11.4,0,0,1,4-4.43,10.13,10.13,0,0,1,5.54-1.6,9.89,9.89,0,0,1,4.88,1.2,8.47,8.47,0,0,1,3.24,3h.19l-.19-3.19V134.75H308v33.61h-3.75v-3.48h-.19a8.28,8.28,0,0,1-3.24,3,9.89,9.89,0,0,1-4.88,1.2A10.13,10.13,0,0,1,290.44,167.51Zm10-3.07a7.6,7.6,0,0,0,2.82-3.08,10.75,10.75,0,0,0,0-9.31,7.61,7.61,0,0,0-2.82-3.06,7.32,7.32,0,0,0-3.82-1.05,7.18,7.18,0,0,0-3.83,1.08,7.75,7.75,0,0,0-2.81,3.07,10.62,10.62,0,0,0,0,9.25,7.68,7.68,0,0,0,2.81,3.07,7.18,7.18,0,0,0,3.83,1.08A7.32,7.32,0,0,0,300.41,164.44Z"/><path class="cls-1" d="M317.55,167.51a11.19,11.19,0,0,1-4.16-4.41,13.35,13.35,0,0,1-1.5-6.38,13.76,13.76,0,0,1,1.41-6.22,11.09,11.09,0,0,1,4-4.51,10.91,10.91,0,0,1,6-1.67,11.37,11.37,0,0,1,5.94,1.53,10.12,10.12,0,0,1,3.92,4.29,14.44,14.44,0,0,1,1.36,6.39,3,3,0,0,1-.1.94H315.93a8.43,8.43,0,0,0,1.27,4.43,7.48,7.48,0,0,0,2.93,2.7,7.89,7.89,0,0,0,3.64.89c2.94,0,5.21-1.43,6.8-4.32l3.53,1.7a12.14,12.14,0,0,1-4.16,4.52,12.39,12.39,0,0,1-12.39.12Zm12.74-13.38a7.31,7.31,0,0,0-.79-2.81,6.06,6.06,0,0,0-2.28-2.4,7.53,7.53,0,0,0-4-1,6.65,6.65,0,0,0-4.55,1.69,7.59,7.59,0,0,0-2.44,4.5Z"/><path class="cls-1" d="M338.55,145.07h3.81v3.48h.18a8,8,0,0,1,3.1-3,8.91,8.91,0,0,1,4.51-1.22c2.85,0,5,.83,6.5,2.49a9.82,9.82,0,0,1,2.23,6.81v14.74h-3.94V154.23q0-6.3-5.87-6.29a5.65,5.65,0,0,0-3.38,1.08,7.16,7.16,0,0,0-2.32,2.81,8.46,8.46,0,0,0-.83,3.67v12.86h-4Z"/><path class="cls-1" d="M369.28,168.63a6.23,6.23,0,0,1-2-1.29,5.66,5.66,0,0,1-1.39-2.13,8.35,8.35,0,0,1-.45-2.89V148.69h-4.13v-3.62h4.13v-6.94h4v6.94h5.73v3.62h-5.73v12.68a4.6,4.6,0,0,0,.8,3,2.84,2.84,0,0,0,2.44,1.06,4.75,4.75,0,0,0,2.53-.66v3.85a8,8,0,0,1-1.43.4,10.78,10.78,0,0,1-1.81.12A6.91,6.91,0,0,1,369.28,168.63Z"/><path class="cls-1" d="M397.44,167.81a16.53,16.53,0,0,1-6.27-6.34,18.59,18.59,0,0,1,0-17.84,16.6,16.6,0,0,1,6.27-6.34,17.35,17.35,0,0,1,8.82-2.3,16.33,16.33,0,0,1,6.92,1.44,15.42,15.42,0,0,1,5.38,4.06l-2.82,2.77a11.85,11.85,0,0,0-4.2-3.38,12.39,12.39,0,0,0-5.28-1.08,13.44,13.44,0,0,0-6.67,1.71,12.83,12.83,0,0,0-4.86,4.84,15.32,15.32,0,0,0,0,14.41,12.8,12.8,0,0,0,4.86,4.83,13.34,13.34,0,0,0,6.67,1.72,13.2,13.2,0,0,0,10.42-5l2.87,2.82a16.56,16.56,0,0,1-5.73,4.39,18.24,18.24,0,0,1-16.38-.68Z"/><path class="cls-1" d="M424.44,134.75h4v33.61h-4Z"/><path class="cls-1" d="M435.82,167.62a10,10,0,0,1-2.22-6.9V146.07h4v14q0,6.44,5.77,6.43a5.84,5.84,0,0,0,3.45-1.08,7,7,0,0,0,2.35-2.81,8.44,8.44,0,0,0,.82-3.66V146.07h3.94v23.29h-3.75v-3.48H450a8.45,8.45,0,0,1-3.12,3,8.81,8.81,0,0,1-4.49,1.22Q438.05,170.11,435.82,167.62Z"/><path class="cls-1" d="M466.52,167.91a8.33,8.33,0,0,1-3.21-3h-.19v3.48h-3.8V134.75h4v10.56l-.19,3.19h.19a8.93,8.93,0,0,1,3.24-3,9.7,9.7,0,0,1,4.88-1.2,10.09,10.09,0,0,1,5.54,1.62,11.65,11.65,0,0,1,4,4.44,14.13,14.13,0,0,1,0,12.67,11.65,11.65,0,0,1-4,4.44,10.09,10.09,0,0,1-5.54,1.62A9.87,9.87,0,0,1,466.52,167.91Zm8.13-3.5a7.68,7.68,0,0,0,2.81-3.07,10.62,10.62,0,0,0,0-9.25,7.75,7.75,0,0,0-2.81-3.07,7.2,7.2,0,0,0-3.83-1.08A7.36,7.36,0,0,0,467,149a7.59,7.59,0,0,0-2.81,3.06,10.75,10.75,0,0,0,0,9.31,7.58,7.58,0,0,0,2.81,3.08,7.36,7.36,0,0,0,3.83,1.05A7.2,7.2,0,0,0,474.65,164.41Z"/><path class="cls-1" d="M488.24,167.23a10,10,0,0,1-3.62-4.65l3.52-1.54a7.5,7.5,0,0,0,2.66,3.37,6.4,6.4,0,0,0,3.73,1.18,6.58,6.58,0,0,0,3.73-1,2.84,2.84,0,0,0,1.48-2.39,2.81,2.81,0,0,0-1.1-2.26,10.25,10.25,0,0,0-3.78-1.55l-3.19-.79a10.42,10.42,0,0,1-4.49-2.21,5.27,5.27,0,0,1-1.85-4.22,5.73,5.73,0,0,1,1.24-3.71,7.61,7.61,0,0,1,3.31-2.35,12.46,12.46,0,0,1,4.51-.8,10.87,10.87,0,0,1,5.46,1.39,7.72,7.72,0,0,1,3.5,3.92l-3.52,1.5a5,5,0,0,0-2.28-2.49,7.23,7.23,0,0,0-3.4-.8,6.34,6.34,0,0,0-3.31.89,2.66,2.66,0,0,0-1.48,2.3,2.27,2.27,0,0,0,1,1.93,9.59,9.59,0,0,0,3.07,1.27l3.47.84a10.93,10.93,0,0,1,5.19,2.65,5.85,5.85,0,0,1,1.71,4.21,6.18,6.18,0,0,1-1.17,3.66,7.92,7.92,0,0,1-3.28,2.58,11.63,11.63,0,0,1-4.79.94A10.42,10.42,0,0,1,488.24,167.23Z"/><path class="cls-1" d="M164.5,194.66h2.74v23.07H164.5Z"/><path class="cls-1" d="M172.33,194.66h2.74v23.07h-2.74Z"/><path class="cls-1" d="M178.9,194.66h13.37v2.61H181.64v7.63h9.6v2.58h-9.6v7.64h10.63v2.61H178.9Z"/><path class="cls-1" d="M199.22,217.52a8.35,8.35,0,0,1-4.66-5.53l2.61-1.06a6.76,6.76,0,0,0,2,3.38,5,5,0,0,0,3.45,1.32,5.37,5.37,0,0,0,3.41-1.08,3.52,3.52,0,0,0,1.39-3,3.37,3.37,0,0,0-1.18-2.65,11.23,11.23,0,0,0-3.85-1.95l-1.45-.52a11.47,11.47,0,0,1-4-2.29,5.06,5.06,0,0,1-1.55-3.93,5.51,5.51,0,0,1,.9-3,6.47,6.47,0,0,1,2.5-2.24,7.58,7.58,0,0,1,3.59-.84,7.88,7.88,0,0,1,3.5.74,7.24,7.24,0,0,1,2.38,1.81,6,6,0,0,1,1.21,2.09l-2.54,1.1a4.44,4.44,0,0,0-4.48-3.13,4.7,4.7,0,0,0-3,1,3.08,3.08,0,0,0-1.26,2.51,2.71,2.71,0,0,0,1.07,2.21,10.66,10.66,0,0,0,3.22,1.59l1.48.52a13,13,0,0,1,4.59,2.66,5.71,5.71,0,0,1,1.66,4.33,6,6,0,0,1-1.14,3.74,6.77,6.77,0,0,1-2.89,2.22,9.33,9.33,0,0,1-3.61.71A8.19,8.19,0,0,1,199.22,217.52Z"/><path class="cls-1" d="M218.37,197.27H211.9v-2.61h15.65v2.61h-6.47v20.46h-2.71Z"/><path class="cls-1" d="M240,217.52a8.35,8.35,0,0,1-4.66-5.53l2.61-1.06a6.76,6.76,0,0,0,2,3.38,5,5,0,0,0,3.45,1.32,5.37,5.37,0,0,0,3.41-1.08,3.52,3.52,0,0,0,1.39-3,3.37,3.37,0,0,0-1.18-2.65,11.23,11.23,0,0,0-3.85-1.95l-1.45-.52a11.47,11.47,0,0,1-4-2.29,5.06,5.06,0,0,1-1.55-3.93,5.51,5.51,0,0,1,.9-3,6.47,6.47,0,0,1,2.5-2.24,7.58,7.58,0,0,1,3.59-.84,7.88,7.88,0,0,1,3.5.74,7.24,7.24,0,0,1,2.38,1.81,6,6,0,0,1,1.21,2.09l-2.54,1.1a4.44,4.44,0,0,0-4.48-3.13,4.7,4.7,0,0,0-3,1,3.08,3.08,0,0,0-1.26,2.51,2.71,2.71,0,0,0,1.07,2.21,10.66,10.66,0,0,0,3.22,1.59l1.48.52a13,13,0,0,1,4.59,2.66,5.71,5.71,0,0,1,1.66,4.33,6,6,0,0,1-1.14,3.74,6.77,6.77,0,0,1-2.89,2.22,9.33,9.33,0,0,1-3.61.71A8.19,8.19,0,0,1,240,217.52Z"/><path class="cls-1" d="M253.62,194.66h2.74v7.21l-.13,2.29h.13a5.37,5.37,0,0,1,2.11-2.09,6,6,0,0,1,3.11-.84,5.65,5.65,0,0,1,4.51,1.74,6.82,6.82,0,0,1,1.51,4.64v10.12h-2.7V208a4.38,4.38,0,0,0-1.08-3.27,4,4,0,0,0-2.89-1,3.85,3.85,0,0,0-2.33.76,5.16,5.16,0,0,0-1.65,2,5.92,5.92,0,0,0-.59,2.56v8.7h-2.74Z"/><path class="cls-1" d="M270.76,197.75a2,2,0,1,1,3.35-1.39,2,2,0,0,1-.56,1.39,2,2,0,0,1-2.79,0Zm0,4h2.71v16h-2.71Z"/><path class="cls-1" d="M282.31,217.42a5.78,5.78,0,0,1-2.21-2.08H280v2.39h-2.61V194.66h2.73v7.25L280,204.1h.12a6.16,6.16,0,0,1,2.23-2,6.63,6.63,0,0,1,3.35-.82,6.94,6.94,0,0,1,3.8,1.11,8,8,0,0,1,2.77,3,9.7,9.7,0,0,1,0,8.7,8.06,8.06,0,0,1-2.77,3,6.94,6.94,0,0,1-3.8,1.11A6.76,6.76,0,0,1,282.31,217.42Zm5.58-2.4a5.41,5.41,0,0,0,1.93-2.11,7.36,7.36,0,0,0,0-6.35,5.48,5.48,0,0,0-1.93-2.11,5.07,5.07,0,0,0-5.26,0,5.22,5.22,0,0,0-1.93,2.09,7.47,7.47,0,0,0,0,6.4,5.27,5.27,0,0,0,1.93,2.11,5.1,5.1,0,0,0,5.26,0Z"/><path class="cls-1" d="M295.22,201.74h2.6v2.36H298a6.16,6.16,0,0,1,2.23-2,6.63,6.63,0,0,1,3.35-.82,6.94,6.94,0,0,1,3.8,1.11,8,8,0,0,1,2.77,3,9.7,9.7,0,0,1,0,8.7,8.06,8.06,0,0,1-2.77,3,6.94,6.94,0,0,1-3.8,1.11,6.76,6.76,0,0,1-3.37-.82,5.78,5.78,0,0,1-2.21-2.08h-.13l.13,2.22v7.13h-2.73ZM305.73,215a5.36,5.36,0,0,0,1.94-2.11,7.36,7.36,0,0,0,0-6.35,5.43,5.43,0,0,0-1.94-2.11,5.05,5.05,0,0,0-5.25,0,5.22,5.22,0,0,0-1.93,2.09,7.38,7.38,0,0,0,0,6.4,5.27,5.27,0,0,0,1.93,2.11,5.05,5.05,0,0,0,2.63.72A4.94,4.94,0,0,0,305.73,215Z"/><path class="cls-1" d="M313.92,216.53a6.81,6.81,0,0,1-1.53-4.73V201.74h2.74v9.61q0,4.41,4,4.41a4,4,0,0,0,2.37-.74,4.89,4.89,0,0,0,1.61-1.93,5.79,5.79,0,0,0,.56-2.52v-8.83h2.71v16h-2.58v-2.39h-.13a5.59,5.59,0,0,1-2.14,2.06,6,6,0,0,1-3.08.84A5.72,5.72,0,0,1,313.92,216.53Z"/><path class="cls-1" d="M329.82,201.74h2.61v2.61h.13a4.31,4.31,0,0,1,1.85-2.22,5.14,5.14,0,0,1,2.79-.9,5.48,5.48,0,0,1,1.87.32v2.93a4.68,4.68,0,0,0-2.26-.48,3.73,3.73,0,0,0-2.11.66,4.75,4.75,0,0,0-1.56,1.76,5,5,0,0,0-.58,2.39v8.92h-2.74Z"/><path class="cls-1" d="M225.86,84.19a13.94,13.94,0,0,0,7-26l-49-28.26a13.94,13.94,0,1,0-13.95,24.14l49,28.27A13.82,13.82,0,0,0,225.86,84.19Z"/><path class="cls-1" d="M180.47,24.12,218.91,1.87A13.94,13.94,0,0,1,232.85,26L209.44,39.39s-11.59-7.34-20.19-11.86C185,25.32,181.54,23.79,180.47,24.12Z"/><path class="cls-1" d="M274.45,84.18a13.86,13.86,0,0,0,7-1.87l39.38-23c-2.42,1.15-28.49-15.44-28.49-15.44L267.47,58.16a13.94,13.94,0,0,0,7,26Z"/><path class="cls-1" d="M324.1,56.56a13.94,13.94,0,0,0,7-26l-49-28.27C275.7-2,266.22-.14,262.39,6.94c-3.27,6-2.25,14.42,4.26,18.46l50.49,29.29A14,14,0,0,0,324.1,56.56Z"/></svg>