<svg id="Layer_1" data-name="Layer 1" xmlns="http://www.w3.org/2000/svg" viewBox="0 0 503.77 224.63"><defs><style>.cls-1{fill:#fff;}.cls-2{fill:#ea4335;}.cls-3{fill:#4285f4;}.cls-4{fill:#fbbc04;}.cls-5{fill:#34a853;}</style></defs><path class="cls-1" d="M0,134.69H10.19a18.33,18.33,0,0,1,9,2.13,14.69,14.69,0,0,1,5.91,5.94,19.47,19.47,0,0,1,0,17.47,14.69,14.69,0,0,1-5.91,5.94,18.33,18.33,0,0,1-9,2.13H0ZM10.19,164.5q6,0,9.43-3.43t3.48-9.58c0-4.09-1.16-7.29-3.48-9.57s-5.46-3.43-9.43-3.43H4v26Z"/><path class="cls-1" d="M35.44,168.23a11.12,11.12,0,0,1-4.16-4.41,13.35,13.35,0,0,1-1.5-6.38,13.76,13.76,0,0,1,1.41-6.22,11.16,11.16,0,0,1,4-4.51,10.88,10.88,0,0,1,6-1.66,11.37,11.37,0,0,1,5.94,1.52,10.09,10.09,0,0,1,3.92,4.3,14.36,14.36,0,0,1,1.36,6.38,3,3,0,0,1-.1.94H33.82a8.43,8.43,0,0,0,1.27,4.43,7.48,7.48,0,0,0,2.93,2.7,7.9,7.9,0,0,0,3.64.9q4.41,0,6.81-4.32L52,163.59a12.24,12.24,0,0,1-4.16,4.53,11.49,11.49,0,0,1-6.36,1.71A11.42,11.42,0,0,1,35.44,168.23Zm12.74-13.38a7.33,7.33,0,0,0-.8-2.81,5.88,5.88,0,0,0-2.27-2.39,7.42,7.42,0,0,0-4-1,6.66,6.66,0,0,0-4.56,1.69,7.62,7.62,0,0,0-2.44,4.5Z"/><path class="cls-1" d="M53.44,145.7h4.32l7.13,18.59H65l7.23-18.59h4.22L66.91,169h-4Z"/><path class="cls-1" d="M82.56,167.45A11.12,11.12,0,0,1,78.4,163a13.35,13.35,0,0,1-1.5-6.38,13.79,13.79,0,0,1,1.41-6.22,11.09,11.09,0,0,1,4-4.51,10.88,10.88,0,0,1,6-1.66,11.31,11.31,0,0,1,5.93,1.52,10,10,0,0,1,3.92,4.3,14.23,14.23,0,0,1,1.37,6.38,3.35,3.35,0,0,1-.1.94H80.94a8.59,8.59,0,0,0,1.26,4.44,7.58,7.58,0,0,0,2.94,2.7,8,8,0,0,0,3.63.89q4.42,0,6.81-4.32l3.52,1.69A12.13,12.13,0,0,1,95,167.34a12.42,12.42,0,0,1-12.39.11ZM95.3,154.08a7.33,7.33,0,0,0-.8-2.82,6,6,0,0,0-2.27-2.39,7.44,7.44,0,0,0-4-1,6.65,6.65,0,0,0-4.55,1.69,7.62,7.62,0,0,0-2.44,4.51Z"/><path class="cls-1" d="M104.24,134.69h4V168.3h-4Z"/><path class="cls-1" d="M117.72,167.43a11.24,11.24,0,0,1-4.24-4.46,13.8,13.8,0,0,1,0-12.63,11.21,11.21,0,0,1,4.24-4.45,12.54,12.54,0,0,1,12.33,0,11.22,11.22,0,0,1,4.27,4.45,13.8,13.8,0,0,1,0,12.63,11.25,11.25,0,0,1-4.27,4.46,12.54,12.54,0,0,1-12.33,0Zm10.1-3.07a7.91,7.91,0,0,0,2.93-3.08,10.27,10.27,0,0,0,0-9.25,7.88,7.88,0,0,0-2.93-3.07,7.65,7.65,0,0,0-3.95-1.08A7.54,7.54,0,0,0,120,149,8,8,0,0,0,117,152a10.27,10.27,0,0,0,0,9.25,8,8,0,0,0,2.94,3.08,7.54,7.54,0,0,0,3.89,1.08A7.65,7.65,0,0,0,127.82,164.36Z"/><path class="cls-1" d="M139.74,145h3.8v3.42h.19a8.93,8.93,0,0,1,3.24-3,9.67,9.67,0,0,1,4.88-1.19,10.09,10.09,0,0,1,5.54,1.62,11.52,11.52,0,0,1,4,4.43,14.06,14.06,0,0,1,0,12.68,11.67,11.67,0,0,1-4,4.43,10.09,10.09,0,0,1-5.54,1.62,9.87,9.87,0,0,1-4.91-1.2,8.3,8.3,0,0,1-3.21-3h-.19l.19,3.24v10.37h-4Zm15.32,19.34a7.73,7.73,0,0,0,2.82-3.08,10.62,10.62,0,0,0,0-9.25,7.7,7.7,0,0,0-2.82-3.07,7.14,7.14,0,0,0-3.82-1.08,7.27,7.27,0,0,0-3.83,1.06,7.65,7.65,0,0,0-2.82,3.05,10.87,10.87,0,0,0,0,9.32,7.64,7.64,0,0,0,2.82,3.07,7.37,7.37,0,0,0,3.83,1.06A7.14,7.14,0,0,0,155.06,164.36Z"/><path class="cls-1" d="M171.24,168.45a11.17,11.17,0,0,1-4.15-4.41,13.35,13.35,0,0,1-1.5-6.38,13.79,13.79,0,0,1,1.41-6.22,11.09,11.09,0,0,1,4-4.51,10.87,10.87,0,0,1,6-1.66,11.32,11.32,0,0,1,5.94,1.52,10,10,0,0,1,3.92,4.3,14.23,14.23,0,0,1,1.36,6.38,3.44,3.44,0,0,1-.09.94h-18.5a8.69,8.69,0,0,0,1.27,4.44,7.58,7.58,0,0,0,2.94,2.7,8,8,0,0,0,3.63.89q4.42,0,6.81-4.32l3.52,1.69a12.13,12.13,0,0,1-4.15,4.53,12.44,12.44,0,0,1-12.4.11ZM184,155.08a7.33,7.33,0,0,0-.8-2.82,6,6,0,0,0-2.28-2.39,7.38,7.38,0,0,0-4-1,6.65,6.65,0,0,0-4.55,1.69,7.62,7.62,0,0,0-2.44,4.51Z"/><path class="cls-1" d="M192.25,146h3.8v3.8h.19a6.32,6.32,0,0,1,2.7-3.24,7.44,7.44,0,0,1,4.06-1.31,7.59,7.59,0,0,1,2.72.47V150a6.7,6.7,0,0,0-3.28-.71,5.37,5.37,0,0,0-3.08,1,6.87,6.87,0,0,0-2.27,2.56,7.28,7.28,0,0,0-.85,3.48v13h-4Z"/><path class="cls-1" d="M224.21,169a12.12,12.12,0,0,1-6.78-8.05l3.8-1.55a9.76,9.76,0,0,0,3,4.92,7.28,7.28,0,0,0,5,1.93,7.92,7.92,0,0,0,5-1.57,5.16,5.16,0,0,0,2-4.3,5,5,0,0,0-1.71-3.87,16.41,16.41,0,0,0-5.61-2.84l-2.11-.75a16.84,16.84,0,0,1-5.82-3.34,7.37,7.37,0,0,1-2.26-5.72,8,8,0,0,1,1.32-4.44,9.45,9.45,0,0,1,3.64-3.26,11,11,0,0,1,5.23-1.22A11.32,11.32,0,0,1,234,136a10.37,10.37,0,0,1,3.48,2.63,9.18,9.18,0,0,1,1.76,3l-3.71,1.59a6.47,6.47,0,0,0-2.16-3.17,6.55,6.55,0,0,0-4.36-1.38,6.82,6.82,0,0,0-4.42,1.46,4.48,4.48,0,0,0-1.83,3.66,3.94,3.94,0,0,0,1.55,3.21,15.83,15.83,0,0,0,4.7,2.33l2.15.75a18.68,18.68,0,0,1,6.69,3.87,8.31,8.31,0,0,1,2.42,6.31,8.73,8.73,0,0,1-1.67,5.45,9.83,9.83,0,0,1-4.2,3.24,13.76,13.76,0,0,1-5.25,1A12,12,0,0,1,224.21,169Z"/><path class="cls-1" d="M250.93,168.57a6.45,6.45,0,0,1-2-1.29,5.49,5.49,0,0,1-1.38-2.13,8.31,8.31,0,0,1-.45-2.89V148.63h-4.13V145h4.13v-7H251v7h5.72v3.61H251v12.68a4.64,4.64,0,0,0,.79,3,2.88,2.88,0,0,0,2.45,1.05,4.77,4.77,0,0,0,2.53-.66v3.85a7.21,7.21,0,0,1-1.43.4,10.94,10.94,0,0,1-1.81.12A7,7,0,0,1,250.93,168.57Z"/><path class="cls-1" d="M263,166.56a10,10,0,0,1-2.23-6.9V145h4v14q0,6.42,5.78,6.43a5.84,5.84,0,0,0,3.45-1.08,7.08,7.08,0,0,0,2.34-2.82,8.45,8.45,0,0,0,.83-3.66V145h3.94V168.3h-3.76v-3.47h-.18a8.31,8.31,0,0,1-3.13,3,8.75,8.75,0,0,1-4.48,1.22Q265.18,169.05,263,166.56Z"/><path class="cls-1" d="M290.44,167.45a11.4,11.4,0,0,1-4-4.43,14.23,14.23,0,0,1,0-12.72,11.43,11.43,0,0,1,4-4.44,10.21,10.21,0,0,1,5.54-1.59,9.88,9.88,0,0,1,4.88,1.19,8.47,8.47,0,0,1,3.24,3h.19l-.19-3.19V134.69H308V168.3h-3.75v-3.47h-.19a8.26,8.26,0,0,1-3.24,3,9.89,9.89,0,0,1-4.88,1.2A10.13,10.13,0,0,1,290.44,167.45Zm10-3.07a7.58,7.58,0,0,0,2.82-3.07,10.77,10.77,0,0,0,0-9.32,7.58,7.58,0,0,0-2.82-3.05,7.37,7.37,0,0,0-7.65,0A7.75,7.75,0,0,0,290,152a10.62,10.62,0,0,0,0,9.25,7.78,7.78,0,0,0,2.81,3.08,7.18,7.18,0,0,0,3.83,1.08A7.33,7.33,0,0,0,300.41,164.38Z"/><path class="cls-1" d="M317.55,167.45a11.19,11.19,0,0,1-4.16-4.41,13.35,13.35,0,0,1-1.5-6.38,13.79,13.79,0,0,1,1.41-6.22,11.16,11.16,0,0,1,4-4.51,10.9,10.9,0,0,1,6-1.66,11.37,11.37,0,0,1,5.94,1.52,10.09,10.09,0,0,1,3.92,4.3,14.36,14.36,0,0,1,1.36,6.38,3,3,0,0,1-.1.94H315.93a8.5,8.5,0,0,0,1.27,4.44,7.63,7.63,0,0,0,2.93,2.7,8,8,0,0,0,3.64.89q4.41,0,6.8-4.32l3.53,1.69a12.24,12.24,0,0,1-4.16,4.53,12.42,12.42,0,0,1-12.39.11Zm12.74-13.37a7.31,7.31,0,0,0-.79-2.82,6,6,0,0,0-2.28-2.39,7.44,7.44,0,0,0-4-1,6.65,6.65,0,0,0-4.55,1.69,7.62,7.62,0,0,0-2.44,4.51Z"/><path class="cls-1" d="M338.55,145h3.81v3.47h.18a7.94,7.94,0,0,1,3.1-3,8.81,8.81,0,0,1,4.51-1.22,8.3,8.3,0,0,1,6.5,2.48,9.82,9.82,0,0,1,2.23,6.81V168.3h-3.94V154.17q0-6.28-5.87-6.29a5.65,5.65,0,0,0-3.38,1.08,7.12,7.12,0,0,0-2.32,2.82,8.38,8.38,0,0,0-.83,3.66V168.3h-4Z"/><path class="cls-1" d="M369.28,168.57a6.23,6.23,0,0,1-2-1.29,5.51,5.51,0,0,1-1.39-2.13,8.31,8.31,0,0,1-.45-2.89V148.63h-4.13V145h4.13v-7h4v7h5.73v3.61h-5.73v12.68a4.63,4.63,0,0,0,.8,3,2.86,2.86,0,0,0,2.44,1.05,4.75,4.75,0,0,0,2.53-.66v3.85a7.21,7.21,0,0,1-1.43.4,10.78,10.78,0,0,1-1.81.12A6.91,6.91,0,0,1,369.28,168.57Z"/><path class="cls-1" d="M397.44,167.75a16.53,16.53,0,0,1-6.27-6.34,18.59,18.59,0,0,1,0-17.84,16.51,16.51,0,0,1,6.27-6.33,17.35,17.35,0,0,1,8.82-2.3,16.32,16.32,0,0,1,6.92,1.43,15.42,15.42,0,0,1,5.38,4.06l-2.82,2.77a12,12,0,0,0-4.2-3.38,12.39,12.39,0,0,0-5.28-1.08,13.44,13.44,0,0,0-6.67,1.71,12.9,12.9,0,0,0-4.86,4.84,15.32,15.32,0,0,0,0,14.41,12.8,12.8,0,0,0,4.86,4.83,13.49,13.49,0,0,0,17.09-3.3l2.87,2.81a16.56,16.56,0,0,1-5.73,4.39,18.24,18.24,0,0,1-16.38-.68Z"/><path class="cls-1" d="M424.44,134.69h4V168.3h-4Z"/><path class="cls-1" d="M435.82,167.56a10,10,0,0,1-2.22-6.9V146h4v14q0,6.42,5.77,6.43a5.84,5.84,0,0,0,3.45-1.08,7.11,7.11,0,0,0,2.35-2.82,8.44,8.44,0,0,0,.82-3.66V146h3.94V169.3h-3.75v-3.47H450a8.36,8.36,0,0,1-3.12,3,8.81,8.81,0,0,1-4.49,1.22Q438.05,170.05,435.82,167.56Z"/><path class="cls-1" d="M466.52,167.85a8.3,8.3,0,0,1-3.21-3h-.19v3.47h-3.8V134.69h4v10.56l-.19,3.19h.19a8.93,8.93,0,0,1,3.24-3,9.69,9.69,0,0,1,4.88-1.19,10.09,10.09,0,0,1,5.54,1.62,11.55,11.55,0,0,1,4,4.43A14.15,14.15,0,0,1,481,163a11.69,11.69,0,0,1-4,4.43,10.09,10.09,0,0,1-5.54,1.62A9.87,9.87,0,0,1,466.52,167.85Zm8.13-3.49a7.78,7.78,0,0,0,2.81-3.08,10.62,10.62,0,0,0,0-9.25,7.75,7.75,0,0,0-2.81-3.07,7.39,7.39,0,0,0-7.66,0,7.56,7.56,0,0,0-2.81,3.05,10.77,10.77,0,0,0,0,9.32,7.55,7.55,0,0,0,2.81,3.07,7.37,7.37,0,0,0,3.83,1.06A7.2,7.2,0,0,0,474.65,164.36Z"/><path class="cls-1" d="M488.24,167.17a10,10,0,0,1-3.62-4.64l3.52-1.55a7.58,7.58,0,0,0,2.66,3.38,6.46,6.46,0,0,0,3.73,1.17,6.66,6.66,0,0,0,3.73-1,2.85,2.85,0,0,0,1.48-2.4,2.77,2.77,0,0,0-1.1-2.25,10.08,10.08,0,0,0-3.78-1.55l-3.19-.8a10.31,10.31,0,0,1-4.49-2.21,5.27,5.27,0,0,1-1.85-4.22,5.73,5.73,0,0,1,1.24-3.71,7.78,7.78,0,0,1,3.31-2.35,12.46,12.46,0,0,1,4.51-.79,11,11,0,0,1,5.46,1.38,7.72,7.72,0,0,1,3.5,3.92l-3.52,1.5a5,5,0,0,0-2.28-2.49,7.22,7.22,0,0,0-3.4-.79,6.25,6.25,0,0,0-3.31.89,2.64,2.64,0,0,0-1.48,2.3,2.26,2.26,0,0,0,1,1.92,9.59,9.59,0,0,0,3.07,1.27l3.47.84a10.84,10.84,0,0,1,5.19,2.66,5.81,5.81,0,0,1,1.71,4.2,6.16,6.16,0,0,1-1.17,3.66,7.77,7.77,0,0,1-3.28,2.58,11.63,11.63,0,0,1-4.79.94A10.35,10.35,0,0,1,488.24,167.17Z"/><path class="cls-1" d="M164.5,194.6h2.74v23.07H164.5Z"/><path class="cls-1" d="M172.33,194.6h2.74v23.07h-2.74Z"/><path class="cls-1" d="M178.9,194.6h13.37v2.61H181.64v7.64h9.6v2.57h-9.6v7.64h10.63v2.61H178.9Z"/><path class="cls-1" d="M199.22,217.46a8.22,8.22,0,0,1-2.87-2.13,8.33,8.33,0,0,1-1.79-3.4l2.61-1.06a6.76,6.76,0,0,0,2,3.38,5,5,0,0,0,3.45,1.32,5.37,5.37,0,0,0,3.41-1.08,3.5,3.5,0,0,0,1.39-2.94,3.39,3.39,0,0,0-1.18-2.66,11.23,11.23,0,0,0-3.85-1.95l-1.45-.52a11.61,11.61,0,0,1-4-2.28,5.08,5.08,0,0,1-1.55-3.93,5.55,5.55,0,0,1,.9-3.05,6.55,6.55,0,0,1,2.5-2.24,7.58,7.58,0,0,1,3.59-.84,7.88,7.88,0,0,1,3.5.74,7.24,7.24,0,0,1,2.38,1.81,6.23,6.23,0,0,1,1.21,2.09l-2.54,1.1a4.44,4.44,0,0,0-4.48-3.13,4.76,4.76,0,0,0-3,1,3.1,3.1,0,0,0-1.26,2.52,2.7,2.7,0,0,0,1.07,2.2,10.88,10.88,0,0,0,3.22,1.6l1.48.51a13,13,0,0,1,4.59,2.66,5.71,5.71,0,0,1,1.66,4.33,6,6,0,0,1-1.14,3.74,6.88,6.88,0,0,1-2.89,2.23,9.51,9.51,0,0,1-3.61.7A8.19,8.19,0,0,1,199.22,217.46Z"/><path class="cls-1" d="M218.37,197.21H211.9V194.6h15.65v2.61h-6.47v20.46h-2.71Z"/><path class="cls-1" d="M240,217.46a8.22,8.22,0,0,1-2.87-2.13,8.33,8.33,0,0,1-1.79-3.4l2.61-1.06a6.76,6.76,0,0,0,2,3.38,5,5,0,0,0,3.45,1.32,5.37,5.37,0,0,0,3.41-1.08,3.5,3.5,0,0,0,1.39-2.94,3.39,3.39,0,0,0-1.18-2.66,11.23,11.23,0,0,0-3.85-1.95l-1.45-.52a11.61,11.61,0,0,1-4-2.28,5.08,5.08,0,0,1-1.55-3.93,5.55,5.55,0,0,1,.9-3.05,6.55,6.55,0,0,1,2.5-2.24,7.58,7.58,0,0,1,3.59-.84,7.88,7.88,0,0,1,3.5.74,7.24,7.24,0,0,1,2.38,1.81,6.23,6.23,0,0,1,1.21,2.09l-2.54,1.1a4.44,4.44,0,0,0-4.48-3.13,4.76,4.76,0,0,0-3,1,3.1,3.1,0,0,0-1.26,2.52,2.7,2.7,0,0,0,1.07,2.2,10.88,10.88,0,0,0,3.22,1.6l1.48.51a13,13,0,0,1,4.59,2.66,5.71,5.71,0,0,1,1.66,4.33,6,6,0,0,1-1.14,3.74,6.88,6.88,0,0,1-2.89,2.23,9.51,9.51,0,0,1-3.61.7A8.19,8.19,0,0,1,240,217.46Z"/><path class="cls-1" d="M253.62,194.6h2.74v7.22l-.13,2.28h.13a5.43,5.43,0,0,1,2.11-2.09,6,6,0,0,1,3.11-.84,5.65,5.65,0,0,1,4.51,1.74,6.82,6.82,0,0,1,1.51,4.64v10.12h-2.7V208a4.38,4.38,0,0,0-1.08-3.27,4,4,0,0,0-2.89-1,3.91,3.91,0,0,0-2.33.76,5.16,5.16,0,0,0-1.65,2,5.92,5.92,0,0,0-.59,2.56v8.7h-2.74Z"/><path class="cls-1" d="M270.76,197.69a1.87,1.87,0,0,1-.58-1.38,2,2,0,0,1,3.93,0,1.93,1.93,0,0,1-.56,1.38,2,2,0,0,1-2.79,0Zm0,4h2.71v16h-2.71Z"/><path class="cls-1" d="M282.31,217.36a5.7,5.7,0,0,1-2.21-2.08H280v2.39h-2.61V194.6h2.73v7.25L280,204h.12a6.16,6.16,0,0,1,2.23-2,6.73,6.73,0,0,1,3.35-.82,6.94,6.94,0,0,1,3.8,1.11,8.09,8.09,0,0,1,2.77,3.05,9.7,9.7,0,0,1,0,8.7,8,8,0,0,1-2.77,3,6.94,6.94,0,0,1-3.8,1.11A6.76,6.76,0,0,1,282.31,217.36Zm5.58-2.4a5.35,5.35,0,0,0,1.93-2.11,6.71,6.71,0,0,0,.72-3.17,6.78,6.78,0,0,0-.72-3.18,5.48,5.48,0,0,0-1.93-2.11,5.07,5.07,0,0,0-5.26,0,5.22,5.22,0,0,0-1.93,2.09,7.47,7.47,0,0,0,0,6.4,5.27,5.27,0,0,0,1.93,2.11,5.05,5.05,0,0,0,2.63.72A4.91,4.91,0,0,0,287.89,215Z"/><path class="cls-1" d="M295.22,201.69h2.6V204H298a6.16,6.16,0,0,1,2.23-2,6.73,6.73,0,0,1,3.35-.82,6.94,6.94,0,0,1,3.8,1.11,8.09,8.09,0,0,1,2.77,3.05,9.7,9.7,0,0,1,0,8.7,8,8,0,0,1-2.77,3,6.94,6.94,0,0,1-3.8,1.11,6.76,6.76,0,0,1-3.37-.82,5.7,5.7,0,0,1-2.21-2.08h-.13l.13,2.23v7.12h-2.73ZM305.73,215a5.3,5.3,0,0,0,1.94-2.11,6.71,6.71,0,0,0,.72-3.17,6.78,6.78,0,0,0-.72-3.18,5.43,5.43,0,0,0-1.94-2.11,5.05,5.05,0,0,0-5.25,0,5.22,5.22,0,0,0-1.93,2.09,7.38,7.38,0,0,0,0,6.4,5.27,5.27,0,0,0,1.93,2.11,5.05,5.05,0,0,0,2.63.72A4.86,4.86,0,0,0,305.73,215Z"/><path class="cls-1" d="M313.92,216.48a6.86,6.86,0,0,1-1.53-4.74V201.69h2.74v9.6q0,4.41,4,4.41a4,4,0,0,0,2.37-.74,4.89,4.89,0,0,0,1.61-1.93,5.75,5.75,0,0,0,.56-2.51v-8.83h2.71v16h-2.58v-2.39h-.13a5.69,5.69,0,0,1-2.14,2.07,6.08,6.08,0,0,1-3.08.83A5.75,5.75,0,0,1,313.92,216.48Z"/><path class="cls-1" d="M329.82,201.69h2.61v2.61h.13a4.37,4.37,0,0,1,1.85-2.23,5.14,5.14,0,0,1,2.79-.9,5.48,5.48,0,0,1,1.87.32v2.94a4.56,4.56,0,0,0-2.26-.49,3.67,3.67,0,0,0-2.11.67,4.72,4.72,0,0,0-1.56,1.75,5,5,0,0,0-.58,2.39v8.92h-2.74Z"/><path class="cls-2" d="M203.82,42.55l28.45-16.43a14,14,0,1,0-14-24.24L169.12,30.26Z"/><path class="cls-3" d="M225.26,84.77a14,14,0,0,0,7-26.13L183.11,30.26a14,14,0,1,0-14,24.25l49.16,28.38A13.94,13.94,0,0,0,225.26,84.77Z"/><path class="cls-4" d="M274.16,84.77a14,14,0,0,0,7-1.88l49.16-28.38L296,42,267.15,58.64a14,14,0,0,0,7,26.13Z"/><path class="cls-5" d="M323.3,56.39a14,14,0,0,0,7-26.13L281.15,1.88a14,14,0,0,0-14,24.24l49.16,28.39A14,14,0,0,0,323.3,56.39Z"/></svg>