<svg id="fc1c7f66-0220-4e01-939c-125be0044f11" data-name="Layer 1" xmlns="http://www.w3.org/2000/svg" viewBox="0 0 629.38 86.65"><defs><style>.ab7326d5-1436-4a6e-b19a-73433abdf067{fill:#fff;}</style></defs><g id="f72b6363-1ff4-4b5b-973c-3fc4ddb77f9b" data-name="IIEST Shibpur"><path class="ab7326d5-1436-4a6e-b19a-73433abdf067" d="M125.55,56.66h2.74V79.73h-2.74Z"/><path class="ab7326d5-1436-4a6e-b19a-73433abdf067" d="M133.38,56.66h2.74V79.73h-2.74Z"/><path class="ab7326d5-1436-4a6e-b19a-73433abdf067" d="M140,56.66h13.37v2.61H142.69V66.9h9.6v2.58h-9.6v7.64h10.63v2.61H140Z"/><path class="ab7326d5-1436-4a6e-b19a-73433abdf067" d="M160.27,79.52A8.39,8.39,0,0,1,155.61,74l2.61-1.06a6.85,6.85,0,0,0,2,3.38,5.06,5.06,0,0,0,3.45,1.32,5.4,5.4,0,0,0,3.41-1.08,3.5,3.5,0,0,0,1.39-3,3.33,3.33,0,0,0-1.18-2.65,11,11,0,0,0-3.85-2L162,68.43a11.74,11.74,0,0,1-4-2.29,5.1,5.1,0,0,1-1.55-3.93,5.58,5.58,0,0,1,.9-3,6.49,6.49,0,0,1,2.5-2.24,7.5,7.5,0,0,1,3.59-.84,7.68,7.68,0,0,1,3.5.74,7,7,0,0,1,2.38,1.81,5.62,5.62,0,0,1,1.21,2.09L168,61.87a4.42,4.42,0,0,0-4.48-3.13,4.68,4.68,0,0,0-3,1,3.12,3.12,0,0,0-1.26,2.51,2.77,2.77,0,0,0,1.07,2.21,11.12,11.12,0,0,0,3.22,1.59l1.48.52a12.83,12.83,0,0,1,4.59,2.66,5.64,5.64,0,0,1,1.66,4.33,6,6,0,0,1-1.14,3.74,6.81,6.81,0,0,1-2.89,2.22,9.48,9.48,0,0,1-3.61.71A8.26,8.26,0,0,1,160.27,79.52Z"/><path class="ab7326d5-1436-4a6e-b19a-73433abdf067" d="M179.42,59.27H173V56.66H188.6v2.61h-6.47V79.73h-2.71Z"/><path class="ab7326d5-1436-4a6e-b19a-73433abdf067" d="M201.05,79.52A8.39,8.39,0,0,1,196.39,74L199,72.93a6.85,6.85,0,0,0,2,3.38,5.06,5.06,0,0,0,3.45,1.32,5.4,5.4,0,0,0,3.41-1.08,3.5,3.5,0,0,0,1.39-3,3.33,3.33,0,0,0-1.18-2.65,11,11,0,0,0-3.85-2l-1.45-.52a11.74,11.74,0,0,1-4-2.29,5.1,5.1,0,0,1-1.55-3.93,5.58,5.58,0,0,1,.9-3,6.49,6.49,0,0,1,2.5-2.24,7.5,7.5,0,0,1,3.59-.84,7.68,7.68,0,0,1,3.5.74,7,7,0,0,1,2.38,1.81,5.62,5.62,0,0,1,1.21,2.09l-2.54,1.1a4.42,4.42,0,0,0-4.48-3.13,4.68,4.68,0,0,0-3,1A3.12,3.12,0,0,0,200,62.25a2.77,2.77,0,0,0,1.07,2.21,11.12,11.12,0,0,0,3.22,1.59l1.48.52a12.83,12.83,0,0,1,4.59,2.66A5.64,5.64,0,0,1,212,73.56a6,6,0,0,1-1.14,3.74A6.81,6.81,0,0,1,208,79.52a9.48,9.48,0,0,1-3.61.71A8.26,8.26,0,0,1,201.05,79.52Z"/><path class="ab7326d5-1436-4a6e-b19a-73433abdf067" d="M214.67,56.66h2.74v7.21l-.13,2.29h.13a5.37,5.37,0,0,1,2.11-2.09,6,6,0,0,1,3.11-.84A5.61,5.61,0,0,1,227.14,65a6.78,6.78,0,0,1,1.51,4.64V79.73H226V70a4.29,4.29,0,0,0-1.08-3.27,3.93,3.93,0,0,0-2.89-1,3.87,3.87,0,0,0-2.33.76,5.19,5.19,0,0,0-1.65,2,6.08,6.08,0,0,0-.59,2.56v8.7h-2.74Z"/><path class="ab7326d5-1436-4a6e-b19a-73433abdf067" d="M231.81,59.75a2,2,0,1,1,3.35-1.39,2,2,0,0,1-.56,1.39A2,2,0,0,1,231.81,59.75Zm0,4h2.71v16h-2.71Z"/><path class="ab7326d5-1436-4a6e-b19a-73433abdf067" d="M243.36,79.42a6,6,0,0,1-2.21-2.08h-.1v2.39h-2.61V56.66h2.73v7.25l-.12,2.19h.12a6.21,6.21,0,0,1,2.23-2,6.58,6.58,0,0,1,3.35-.82,6.83,6.83,0,0,1,3.8,1.11,7.83,7.83,0,0,1,2.77,3,9.66,9.66,0,0,1,0,8.7,8.06,8.06,0,0,1-2.77,3,7,7,0,0,1-3.8,1.11A6.81,6.81,0,0,1,243.36,79.42Zm5.58-2.4a5.37,5.37,0,0,0,1.93-2.11,7.36,7.36,0,0,0,0-6.35,5.37,5.37,0,0,0-1.93-2.11,5.07,5.07,0,0,0-5.26,0,5.19,5.19,0,0,0-1.93,2.09,7.47,7.47,0,0,0,0,6.4,5.44,5.44,0,0,0,1.93,2.11,5.12,5.12,0,0,0,5.26,0Z"/><path class="ab7326d5-1436-4a6e-b19a-73433abdf067" d="M256.27,63.74h2.6V66.1h.18a6.21,6.21,0,0,1,2.23-2,6.58,6.58,0,0,1,3.35-.82,6.83,6.83,0,0,1,3.8,1.11,7.83,7.83,0,0,1,2.77,3,9.66,9.66,0,0,1,0,8.7,8.06,8.06,0,0,1-2.77,3,7,7,0,0,1-3.8,1.11,6.86,6.86,0,0,1-3.37-.82,6,6,0,0,1-2.21-2.08h-.13l.13,2.22v7.13h-2.73ZM266.78,77a5.39,5.39,0,0,0,1.94-2.11,7.29,7.29,0,0,0,0-6.35,5.26,5.26,0,0,0-1.94-2.11,5,5,0,0,0-5.25,0,5.19,5.19,0,0,0-1.93,2.09,7.4,7.4,0,0,0,0,6.4A5.44,5.44,0,0,0,261.53,77a5.2,5.2,0,0,0,2.63.72A4.93,4.93,0,0,0,266.78,77Z"/><path class="ab7326d5-1436-4a6e-b19a-73433abdf067" d="M275,78.53a6.88,6.88,0,0,1-1.53-4.73V63.74h2.74v9.61c0,2.94,1.34,4.41,4,4.41a4,4,0,0,0,2.37-.74,4.85,4.85,0,0,0,1.61-1.93,5.65,5.65,0,0,0,.56-2.52V63.74h2.71v16h-2.58V77.35h-.13a5.65,5.65,0,0,1-2.14,2.06,6,6,0,0,1-3.08.84A5.77,5.77,0,0,1,275,78.53Z"/><path class="ab7326d5-1436-4a6e-b19a-73433abdf067" d="M290.87,63.74h2.61v2.61h.13a4.31,4.31,0,0,1,1.85-2.22,5.11,5.11,0,0,1,2.79-.9,5.18,5.18,0,0,1,1.87.32v2.93a4.52,4.52,0,0,0-2.26-.48,3.73,3.73,0,0,0-2.11.66,4.82,4.82,0,0,0-1.56,1.76,5.18,5.18,0,0,0-.58,2.39v8.92h-2.74Z"/></g><g id="be52988b-1676-4b4b-bab5-21da79a89b67" data-name="Developers Students Club"><path class="ab7326d5-1436-4a6e-b19a-73433abdf067" d="M125.58,4.89h10.19a18.33,18.33,0,0,1,9,2.13A14.63,14.63,0,0,1,150.68,13a19.44,19.44,0,0,1,0,17.46,14.63,14.63,0,0,1-5.91,5.94,18.33,18.33,0,0,1-9,2.14H125.58ZM135.77,34.7q6,0,9.43-3.43t3.48-9.58q0-6.15-3.48-9.57t-9.43-3.43h-6.19v26Z"/><path class="ab7326d5-1436-4a6e-b19a-73433abdf067" d="M161,38.43A11.17,11.17,0,0,1,156.86,34a13.3,13.3,0,0,1-1.5-6.39,13.79,13.79,0,0,1,1.41-6.22,11.08,11.08,0,0,1,4-4.5,10.86,10.86,0,0,1,6-1.67,11.29,11.29,0,0,1,5.94,1.53,10.1,10.1,0,0,1,3.92,4.29A14.49,14.49,0,0,1,178,27.45a3.34,3.34,0,0,1-.1.94H159.4a8.38,8.38,0,0,0,1.27,4.43,7.47,7.47,0,0,0,2.93,2.7,7.93,7.93,0,0,0,3.64.89c2.94,0,5.21-1.43,6.81-4.32l3.52,1.7a12.28,12.28,0,0,1-4.16,4.52,12.39,12.39,0,0,1-12.39.12Zm12.74-13.38a7.44,7.44,0,0,0-.8-2.81,6,6,0,0,0-2.27-2.4,7.4,7.4,0,0,0-4-1,6.6,6.6,0,0,0-4.56,1.69,7.53,7.53,0,0,0-2.44,4.5Z"/><path class="ab7326d5-1436-4a6e-b19a-73433abdf067" d="M179,15.9h4.32l7.13,18.59h.11l7.23-18.59H202L192.5,39.19h-4Z"/><path class="ab7326d5-1436-4a6e-b19a-73433abdf067" d="M208.14,37.65A11.17,11.17,0,0,1,204,33.24a13.26,13.26,0,0,1-1.5-6.38,13.66,13.66,0,0,1,1.41-6.22,10.83,10.83,0,0,1,10-6.18A11.23,11.23,0,0,1,219.82,16a10,10,0,0,1,3.92,4.29,14.36,14.36,0,0,1,1.37,6.39,3.76,3.76,0,0,1-.1.94H206.52A8.49,8.49,0,0,0,207.78,32a7.43,7.43,0,0,0,2.94,2.7,7.89,7.89,0,0,0,3.63.89c3,0,5.22-1.43,6.81-4.32l3.52,1.7a12.12,12.12,0,0,1-4.1,4.52,12.41,12.41,0,0,1-12.39.12Zm12.74-13.38a7.44,7.44,0,0,0-.8-2.81,6,6,0,0,0-2.27-2.4,7.49,7.49,0,0,0-4-1,6.63,6.63,0,0,0-4.55,1.69,7.53,7.53,0,0,0-2.44,4.5Z"/><path class="ab7326d5-1436-4a6e-b19a-73433abdf067" d="M229.82,4.89h4V38.5h-4Z"/><path class="ab7326d5-1436-4a6e-b19a-73433abdf067" d="M243.3,37.63a11.3,11.3,0,0,1-4.24-4.46,13.8,13.8,0,0,1,0-12.63,11.23,11.23,0,0,1,4.24-4.46,12.54,12.54,0,0,1,12.33,0,11.31,11.31,0,0,1,4.27,4.46,13.8,13.8,0,0,1,0,12.63,11.44,11.44,0,0,1-4.27,4.46A12.54,12.54,0,0,1,243.3,37.63Zm10.1-3.08a7.93,7.93,0,0,0,2.93-3.07,10.31,10.31,0,0,0,0-9.25,7.8,7.8,0,0,0-2.93-3.07,7.55,7.55,0,0,0-4-1.08,7.41,7.41,0,0,0-3.87,1.06,8,8,0,0,0-2.94,3.07,10.25,10.25,0,0,0,0,9.25,8,8,0,0,0,2.94,3.07,7.6,7.6,0,0,0,3.89,1.08A7.75,7.75,0,0,0,253.4,34.55Z"/><path class="ab7326d5-1436-4a6e-b19a-73433abdf067" d="M265.32,15.21h3.8v3.43h.19a8.81,8.81,0,0,1,3.24-3,9.55,9.55,0,0,1,4.88-1.2A10.09,10.09,0,0,1,283,16.06a11.64,11.64,0,0,1,4,4.44,14,14,0,0,1,0,12.67,11.79,11.79,0,0,1-4,4.44,10.18,10.18,0,0,1-5.54,1.62,9.86,9.86,0,0,1-4.91-1.2,8.34,8.34,0,0,1-3.21-3h-.19l.19,3.24V48.64h-4Zm15.32,19.34a7.79,7.79,0,0,0,2.82-3.07,10.64,10.64,0,0,0,0-9.25,7.66,7.66,0,0,0-2.82-3.07,7.08,7.08,0,0,0-3.82-1.08A7.27,7.27,0,0,0,273,19.13a7.63,7.63,0,0,0-2.82,3.06,10.84,10.84,0,0,0,0,9.31A7.67,7.67,0,0,0,273,34.58a7.45,7.45,0,0,0,3.83,1.05A7.26,7.26,0,0,0,280.64,34.55Z"/><path class="ab7326d5-1436-4a6e-b19a-73433abdf067" d="M296.82,38.65a11.14,11.14,0,0,1-4.15-4.41,13.26,13.26,0,0,1-1.5-6.38,13.66,13.66,0,0,1,1.41-6.22,10.83,10.83,0,0,1,10-6.18A11.26,11.26,0,0,1,308.52,17a10,10,0,0,1,3.92,4.29,14.35,14.35,0,0,1,1.36,6.39,3.75,3.75,0,0,1-.09.94h-18.5A8.59,8.59,0,0,0,296.48,33a7.43,7.43,0,0,0,2.94,2.7,7.89,7.89,0,0,0,3.63.89c2.95,0,5.22-1.43,6.81-4.32l3.52,1.7a12.1,12.1,0,0,1-4.15,4.52,12.43,12.43,0,0,1-12.4.12Zm12.76-13.38a7.44,7.44,0,0,0-.8-2.81,6.12,6.12,0,0,0-2.28-2.4,7.4,7.4,0,0,0-4-1A6.63,6.63,0,0,0,298,20.75a7.53,7.53,0,0,0-2.44,4.5Z"/><path class="ab7326d5-1436-4a6e-b19a-73433abdf067" d="M317.83,16.21h3.8V20h.19a6.19,6.19,0,0,1,2.7-3.24,7.35,7.35,0,0,1,4.06-1.32,7.67,7.67,0,0,1,2.72.47V20.2a6.68,6.68,0,0,0-3.28-.7,5.39,5.39,0,0,0-3.08,1,6.86,6.86,0,0,0-2.27,2.57,7.25,7.25,0,0,0-.85,3.48v13h-4Z"/><path class="ab7326d5-1436-4a6e-b19a-73433abdf067" d="M349.79,39.19a12,12,0,0,1-4.21-3,12.43,12.43,0,0,1-2.6-5l3.8-1.55a9.78,9.78,0,0,0,3,4.93,7.34,7.34,0,0,0,5,1.93,7.89,7.89,0,0,0,5-1.58,5.19,5.19,0,0,0,2-4.29,4.93,4.93,0,0,0-1.71-3.87,16.35,16.35,0,0,0-5.61-2.84l-2.11-.76a16.72,16.72,0,0,1-5.82-3.33,7.39,7.39,0,0,1-2.26-5.73,7.91,7.91,0,0,1,1.32-4.43,9.38,9.38,0,0,1,3.64-3.26,10.92,10.92,0,0,1,5.23-1.23,11.35,11.35,0,0,1,5.09,1.08A10.55,10.55,0,0,1,363,8.84a9.16,9.16,0,0,1,1.76,3.06l-3.71,1.59a6.43,6.43,0,0,0-6.5-4.55,6.8,6.8,0,0,0-4.42,1.45,4.44,4.44,0,0,0-1.83,3.66,4,4,0,0,0,1.55,3.22,15.74,15.74,0,0,0,4.7,2.32l2.15.75a18.68,18.68,0,0,1,6.69,3.88,8.33,8.33,0,0,1,2.42,6.31A8.73,8.73,0,0,1,364.17,36a9.93,9.93,0,0,1-4.2,3.24,14.32,14.32,0,0,1-5.25,1A12,12,0,0,1,349.79,39.19Z"/><path class="ab7326d5-1436-4a6e-b19a-73433abdf067" d="M376.51,38.77a6.6,6.6,0,0,1-2-1.29,5.64,5.64,0,0,1-1.38-2.13,8.36,8.36,0,0,1-.45-2.89V18.83h-4.13V15.21h4.13V8.27h3.9v6.94h5.72v3.62h-5.72V31.51a4.52,4.52,0,0,0,.79,3,2.88,2.88,0,0,0,2.45,1.06,4.79,4.79,0,0,0,2.53-.66v3.85a9.23,9.23,0,0,1-1.43.4,11,11,0,0,1-1.81.12A7.21,7.21,0,0,1,376.51,38.77Z"/><path class="ab7326d5-1436-4a6e-b19a-73433abdf067" d="M388.58,36.76a10,10,0,0,1-2.23-6.9V15.21h4v14q0,6.43,5.78,6.43a5.93,5.93,0,0,0,3.45-1.08,7.17,7.17,0,0,0,2.34-2.81,8.62,8.62,0,0,0,.83-3.66V15.21h3.94V38.5h-3.76V35h-.18a8.58,8.58,0,0,1-3.13,3,8.84,8.84,0,0,1-4.48,1.22C392.22,39.24,390,38.42,388.58,36.76Z"/><path class="ab7326d5-1436-4a6e-b19a-73433abdf067" d="M416,37.65a11.37,11.37,0,0,1-4-4.43,14.25,14.25,0,0,1,0-12.73,11.24,11.24,0,0,1,4-4.43,10.05,10.05,0,0,1,5.54-1.6,9.8,9.8,0,0,1,4.88,1.2,8.49,8.49,0,0,1,3.24,3h.19l-.19-3.19V4.89h3.9V38.5h-3.75V35h-.19a8.35,8.35,0,0,1-3.24,3,10,10,0,0,1-4.88,1.2A10.17,10.17,0,0,1,416,37.65Zm10-3.07a7.68,7.68,0,0,0,2.82-3.08,10.77,10.77,0,0,0,0-9.31A7.57,7.57,0,0,0,426,19.13a7.28,7.28,0,0,0-3.82-1.05,7.09,7.09,0,0,0-3.83,1.08,7.7,7.7,0,0,0-2.81,3.07,10.58,10.58,0,0,0,0,9.25,7.69,7.69,0,0,0,2.81,3.07,7.27,7.27,0,0,0,3.83,1.08A7.36,7.36,0,0,0,426,34.58Z"/><path class="ab7326d5-1436-4a6e-b19a-73433abdf067" d="M443.13,37.65A11.17,11.17,0,0,1,439,33.24a13.26,13.26,0,0,1-1.5-6.38,13.66,13.66,0,0,1,1.41-6.22,10.83,10.83,0,0,1,10-6.18A11.29,11.29,0,0,1,454.82,16a10.1,10.1,0,0,1,3.92,4.29,14.49,14.49,0,0,1,1.36,6.39,3.34,3.34,0,0,1-.1.94H441.51A8.38,8.38,0,0,0,442.78,32a7.47,7.47,0,0,0,2.93,2.7,7.93,7.93,0,0,0,3.64.89c2.94,0,5.21-1.43,6.8-4.32l3.53,1.7a12.28,12.28,0,0,1-4.16,4.52,12.41,12.41,0,0,1-12.39.12Zm12.74-13.38a7.25,7.25,0,0,0-.79-2.81,6.12,6.12,0,0,0-2.28-2.4,7.49,7.49,0,0,0-4-1,6.63,6.63,0,0,0-4.55,1.69,7.53,7.53,0,0,0-2.44,4.5Z"/><path class="ab7326d5-1436-4a6e-b19a-73433abdf067" d="M464.13,15.21h3.81v3.48h.18a7.91,7.91,0,0,1,3.1-3,8.8,8.8,0,0,1,4.51-1.22,8.29,8.29,0,0,1,6.5,2.49,9.83,9.83,0,0,1,2.23,6.81V38.51h-3.94V24.37q0-6.3-5.87-6.29a5.54,5.54,0,0,0-3.38,1.08A7,7,0,0,0,469,22a8.32,8.32,0,0,0-.83,3.67V38.5h-4Z"/><path class="ab7326d5-1436-4a6e-b19a-73433abdf067" d="M494.86,38.77a6.19,6.19,0,0,1-2-1.29,5.66,5.66,0,0,1-1.39-2.13,8.36,8.36,0,0,1-.45-2.89V18.83h-4.13V15.21H491V8.27h4v6.94h5.73v3.62H495V31.51a4.58,4.58,0,0,0,.8,3,2.85,2.85,0,0,0,2.44,1.06,4.79,4.79,0,0,0,2.53-.66v3.85a9.23,9.23,0,0,1-1.43.4,11,11,0,0,1-1.81.12A7.07,7.07,0,0,1,494.86,38.77Z"/><path class="ab7326d5-1436-4a6e-b19a-73433abdf067" d="M523,38a16.6,16.6,0,0,1-6.27-6.34,18.59,18.59,0,0,1,0-17.84A16.53,16.53,0,0,1,523,7.43a17.25,17.25,0,0,1,8.82-2.3,16.37,16.37,0,0,1,6.92,1.44,15.42,15.42,0,0,1,5.38,4.06l-2.82,2.77a11.79,11.79,0,0,0-4.2-3.38,12.19,12.19,0,0,0-5.28-1.08,13.39,13.39,0,0,0-6.67,1.71,12.76,12.76,0,0,0-4.86,4.84,15.32,15.32,0,0,0,0,14.41,12.81,12.81,0,0,0,4.86,4.83,13.4,13.4,0,0,0,6.67,1.72,13.22,13.22,0,0,0,10.42-5l2.87,2.82a16.77,16.77,0,0,1-5.73,4.39A18.28,18.28,0,0,1,523,38Z"/><path class="ab7326d5-1436-4a6e-b19a-73433abdf067" d="M550,4.89h4V38.5h-4Z"/><path class="ab7326d5-1436-4a6e-b19a-73433abdf067" d="M561.4,37.76a10,10,0,0,1-2.22-6.9V16.21h4v14q0,6.43,5.77,6.43a5.93,5.93,0,0,0,3.45-1.08,7,7,0,0,0,2.35-2.81,8.61,8.61,0,0,0,.82-3.66V16.21h3.94V39.5h-3.75V36h-.18a8.63,8.63,0,0,1-3.12,3A8.85,8.85,0,0,1,568,40.24C565.07,40.24,562.88,39.42,561.4,37.76Z"/><path class="ab7326d5-1436-4a6e-b19a-73433abdf067" d="M592.1,38.05a8.34,8.34,0,0,1-3.21-3h-.19v3.48h-3.8V4.89h4V15.45l-.19,3.19h.19a8.81,8.81,0,0,1,3.24-3,9.55,9.55,0,0,1,4.88-1.2,10.09,10.09,0,0,1,5.54,1.62,11.64,11.64,0,0,1,4,4.44,14.13,14.13,0,0,1,0,12.67,11.79,11.79,0,0,1-4,4.44A10.18,10.18,0,0,1,597,39.23,9.91,9.91,0,0,1,592.1,38.05Zm8.13-3.5A7.76,7.76,0,0,0,603,31.48a10.64,10.64,0,0,0,0-9.25,7.7,7.7,0,0,0-2.81-3.07,7.12,7.12,0,0,0-3.83-1.08,7.24,7.24,0,0,0-3.82,1.06,7.47,7.47,0,0,0-2.81,3.06,10.71,10.71,0,0,0,0,9.31,7.58,7.58,0,0,0,2.81,3.08,7.45,7.45,0,0,0,3.83,1A7.27,7.27,0,0,0,600.23,34.55Z"/><path class="ab7326d5-1436-4a6e-b19a-73433abdf067" d="M613.82,37.37a10,10,0,0,1-3.62-4.65l3.52-1.54a7.52,7.52,0,0,0,2.66,3.37,6.45,6.45,0,0,0,3.73,1.18,6.65,6.65,0,0,0,3.73-1,2.85,2.85,0,0,0,1.48-2.39,2.79,2.79,0,0,0-1.1-2.26,10.09,10.09,0,0,0-3.78-1.55l-3.19-.79a10.35,10.35,0,0,1-4.49-2.21,5.27,5.27,0,0,1-1.85-4.22,5.66,5.66,0,0,1,1.24-3.71,7.58,7.58,0,0,1,3.31-2.35,12.19,12.19,0,0,1,4.51-.8,10.78,10.78,0,0,1,5.46,1.39,7.71,7.71,0,0,1,3.5,3.92l-3.52,1.5a5,5,0,0,0-2.28-2.49,7.18,7.18,0,0,0-3.4-.8,6.21,6.21,0,0,0-3.31.89,2.65,2.65,0,0,0-1.48,2.3,2.27,2.27,0,0,0,1,1.93A9.73,9.73,0,0,0,619,24.36l3.47.84a10.88,10.88,0,0,1,5.19,2.65,5.85,5.85,0,0,1,1.71,4.21,6.18,6.18,0,0,1-1.17,3.66,8,8,0,0,1-3.28,2.58,11.63,11.63,0,0,1-4.79.94A10.46,10.46,0,0,1,613.82,37.37Z"/></g><g id="a6466109-7b55-4136-b1a7-05d439ed72de" data-name="Logo"><path class="ab7326d5-1436-4a6e-b19a-73433abdf067" d="M37,49.44a8.19,8.19,0,0,0,4.11-15.27L12.28,17.57A8.19,8.19,0,0,0,4.09,31.75l28.78,16.6A8.1,8.1,0,0,0,37,49.44Z"/><path class="ab7326d5-1436-4a6e-b19a-73433abdf067" d="M10.29,14.16,32.87,1.1a8.18,8.18,0,0,1,8.18,14.17L27.3,23.13s-6.8-4.31-11.85-7C13,14.87,10.92,14,10.29,14.16Z"/><path class="ab7326d5-1436-4a6e-b19a-73433abdf067" d="M65.48,49.43a8,8,0,0,0,4.11-1.1l23.13-13.5C91.3,35.5,76,25.76,76,25.76L61.38,34.15a8.19,8.19,0,0,0,4.11,15.27Z"/><path class="ab7326d5-1436-4a6e-b19a-73433abdf067" d="M94.64,33.21a8.19,8.19,0,0,0,4.11-15.27L70,1.34A8.17,8.17,0,0,0,58.4,4.07c-1.92,3.53-1.32,8.47,2.5,10.84l29.65,17.2A8.14,8.14,0,0,0,94.64,33.21Z"/></g></svg>